<?xml version="1.0"?><svg data-name="Layer 1" id="Layer_1" viewBox="0 0 32 32" xmlns="http://www.w3.org/2000/svg"><path d="M15.98,2.18869C15.98,15.2731,16.70693,16,29.79134,16,16.70693,16,15.98,16.7269,15.98,29.81131,15.98,16.7269,15.25311,16,2.16871,16,15.25311,16,15.98,15.2731,15.98,2.18869m0-1.2a1.2,1.2,0,0,0-1.2,1.2C14.78,14.56427,14.54429,14.8,2.16871,14.8a1.2,1.2,0,0,0,0,2.4c12.37558,0,12.61131.23572,12.61131,12.6113a1.2,1.2,0,1,0,2.4,0c0-12.37558.23573-12.6113,12.61132-12.6113a1.2,1.2,0,0,0,0-2.4C17.41575,14.8,17.18,14.56427,17.18,2.18869a1.2,1.2,0,0,0-1.2-1.2Z"/></svg>