<?xml version="1.0"?><svg xmlns="http://www.w3.org/2000/svg" xmlns:xlink="http://www.w3.org/1999/xlink" version="1.1" viewBox="0 0 512 512" style="enable-background:new 0 0 0 0;" xml:space="preserve"><g id="_x33_6_Email"><g><linearGradient id="SVGID_1_" gradientUnits="userSpaceOnUse" x1="284.9663" y1="-205.8513" x2="226.5783" y2="880.1656"><stop offset="0" style="stop-color:#EAE9FE"/><stop offset="0.4236" style="stop-color:#EEEEFE"/><stop offset="0.8967" style="stop-color:#FBFF00"/><stop offset="1" style="stop-color:#FFFF00"/></linearGradient><path style="fill:url(#SVGID_1_);" d="M468.836,264.275c-9.502-7.393-20.977-13.763-25.396-24.961    c-6.009-15.229,3.597-31.571,9.261-46.931c17.296-46.9-4.903-102.439-44.732-132.645    c-75.982-57.623-224.302-37.425-245.028,42.219c-8.768,33.692,6.94,72.131-9.131,103.013    c-20.278,38.966-74.073,41.594-108.719,58.921C2.169,285.358-6.419,332.1,24.365,367.686    c11.304,13.068,25.769,22.07,36.136,36.348c15.001,20.659,23.415,43.504,43.486,60.545c28.263,23.996,75.517,29.946,100.538,2.586    c14.09-15.407,18.675-38.106,34.054-52.225c20.245-18.586,52.242-16.086,78.004-6.514c25.762,9.571,49.655,25.026,76.789,29.381    c42.426,6.81,87.917-18.085,105.053-57.489C515.561,340.912,502.748,290.664,468.836,264.275z"/><g><path style="fill:#FFC536;" d="M442.01,192.08V384.15c0,12.842-10.411,23.253-23.253,23.253H93.212     c-12.842,0-23.253-10.411-23.253-23.253V192.08c0-12.842,10.411-23.253,23.253-23.253h325.545     C431.599,168.827,442.01,179.237,442.01,192.08z"/><path style="fill:#FFC536;" d="M441.996,192.051c0-12.79-10.388-23.255-23.255-23.255H93.245     c-12.868,0-23.255,10.465-23.255,23.255l172.136,127.361c8.217,6.08,19.441,6.081,27.66,0.003L441.996,192.051z"/><path style="fill:#FF5859;" d="M320.289,168.855c0,35.389-28.783,64.172-64.29,64.172c-35.506,0-64.289-28.783-64.289-64.172     c0-35.507,28.783-64.29,64.289-64.29C291.506,104.566,320.289,133.348,320.289,168.855z"/><path style="fill:#332E8E;" d="M418.742,165.047h-94.815c-1.983-35.751-31.689-64.231-67.927-64.231     s-65.944,28.479-67.927,64.231H93.244c-14.832,0-27.036,12.085-27.036,27.034v192.07c0,14.822,12.081,27.034,27.036,27.034     h325.544c14.89,0,27.004-12.114,27.004-27.002c0-0.095-0.025-0.185-0.032-0.278V192.08     C445.761,177.116,433.572,165.047,418.742,165.047z M73.817,385.94l122.067-96.077l44.012,32.563     c4.802,3.555,10.432,5.33,16.062,5.33c5.625,0,11.255-1.775,16.055-5.327l44.085-32.604l122.074,96.081     c-0.892,9.933-9.254,17.746-19.415,17.746H93.212C82.995,403.653,74.702,395.769,73.817,385.94z M73.708,199.468l115.927,85.771     L73.708,376.483V199.468z M93.212,172.576h94.855c1.942,35.73,31.667,64.202,67.933,64.202s65.991-28.472,67.933-64.202h94.823     c10.17,0,18.49,7.821,19.404,17.646L267.555,316.399c-6.943,5.134-16.265,5.132-23.198-0.002L73.825,190.222     C74.739,180.415,83.025,172.576,93.212,172.576z M438.261,376.434L322.35,285.202l115.911-85.724V376.434z M256,108.316     c33.381,0,60.54,27.158,60.54,60.54c0,33.318-27.158,60.422-60.54,60.422s-60.54-27.104-60.54-60.422     C195.46,135.474,222.619,108.316,256,108.316z"/><path style="fill:#FFC536;" d="M442.01,192.08V384.15c0,12.842-10.411,23.253-23.253,23.253H93.212     c-12.842,0-23.253-10.411-23.253-23.253V192.08c0-12.842,10.411-23.253,23.253-23.253h325.545     C431.599,168.827,442.01,179.237,442.01,192.08z"/><path style="fill:#FFC536;" d="M441.996,192.051c0-12.79-10.388-23.255-23.255-23.255H93.245     c-12.868,0-23.255,10.465-23.255,23.255l172.136,127.361c8.217,6.08,19.441,6.081,27.66,0.003L441.996,192.051z"/><path style="fill:#FF5859;" d="M320.289,168.855c0,35.389-28.783,64.172-64.29,64.172c-35.506,0-64.289-28.783-64.289-64.172     c0-35.507,28.783-64.29,64.289-64.29C291.506,104.566,320.289,133.348,320.289,168.855z"/><path style="fill:#332E8E;" d="M418.742,165.047h-94.815c-1.983-35.751-31.689-64.231-67.927-64.231     s-65.944,28.479-67.927,64.231H93.244c-14.832,0-27.036,12.085-27.036,27.034v192.07c0,14.822,12.081,27.034,27.036,27.034     h325.544c14.89,0,27.004-12.114,27.004-27.002c0-0.095-0.025-0.185-0.032-0.278V192.08     C445.761,177.116,433.572,165.047,418.742,165.047z M73.817,385.94l122.067-96.077l44.012,32.563     c4.802,3.555,10.432,5.33,16.062,5.33c5.625,0,11.255-1.775,16.055-5.327l44.085-32.604l122.074,96.081     c-0.892,9.933-9.254,17.746-19.415,17.746H93.212C82.995,403.653,74.702,395.769,73.817,385.94z M73.708,199.468l115.927,85.771     L73.708,376.483V199.468z M93.212,172.576h94.855c1.942,35.73,31.667,64.202,67.933,64.202s65.991-28.472,67.933-64.202h94.823     c10.17,0,18.49,7.821,19.404,17.646L267.555,316.399c-6.943,5.134-16.265,5.132-23.198-0.002L73.825,190.222     C74.739,180.415,83.025,172.576,93.212,172.576z M438.261,376.434L322.35,285.202l115.911-85.724V376.434z M256,108.316     c33.381,0,60.54,27.158,60.54,60.54c0,33.318-27.158,60.422-60.54,60.422s-60.54-27.104-60.54-60.422     C195.46,135.474,222.619,108.316,256,108.316z"/></g></g></g><g id="Layer_1"/></svg>