<?xml version="1.0"?><svg xmlns="http://www.w3.org/2000/svg" xmlns:xlink="http://www.w3.org/1999/xlink" version="1.1" viewBox="0 0 512 512" style="enable-background:new 0 0 512 512;" xml:space="preserve"><g id="_x32_9_Gift_Bag"><g><linearGradient id="SVGID_1_" gradientUnits="userSpaceOnUse" x1="284.9663" y1="-205.8511" x2="226.5783" y2="880.1655"><stop offset="0" style="stop-color:#EAE9FE"/><stop offset="0.4236" style="stop-color:#EEEEFE"/><stop offset="0.8967" style="stop-color:#FBFBFF"/><stop offset="1" style="stop-color:#FFFFFF"/></linearGradient><path style="fill:url(#SVGID_1_);" d="M468.836,264.275c-9.501-7.393-20.976-13.763-25.395-24.961    c-6.01-15.229,3.596-31.571,9.261-46.931c17.297-46.899-4.902-102.439-44.732-132.645    c-75.982-57.623-224.302-37.425-245.028,42.219c-8.768,33.692,6.941,72.131-9.131,103.013    c-20.278,38.966-74.072,41.594-108.719,58.921C2.169,285.358-6.419,332.1,24.365,367.686    c11.304,13.068,25.769,22.07,36.136,36.348c15.001,20.659,23.415,43.504,43.486,60.545c28.263,23.996,75.517,29.946,100.538,2.586    c14.089-15.407,18.674-38.106,34.054-52.225c20.245-18.586,52.242-16.086,78.004-6.514c25.762,9.571,49.654,25.026,76.789,29.381    c42.426,6.81,87.916-18.085,105.053-57.489C515.561,340.912,502.748,290.664,468.836,264.275z"/><path style="fill:#EDEDED;" d="M430.569,427.473c1.682,18.664-13.137,34.765-31.882,34.765H112.236    c-18.744,0-33.563-16.101-31.881-34.765l24.672-284.288c0.721-8.331,7.61-14.659,15.941-14.659h268.988    c8.331,0,15.219,6.328,15.941,14.659L430.569,427.473z"/><circle style="fill:#386E93;" cx="190.59" cy="183.771" r="18.906"/><circle style="fill:#386E93;" cx="320.33" cy="183.771" r="18.906"/><path style="fill:#FF5859;" d="M345.453,303.276c0,42.331-58.546,88.451-81.176,104.767c-5.254,3.738-12.326,3.738-17.579,0    c-22.681-16.265-81.227-62.436-81.227-104.767c0-32.228,26.166-58.395,58.395-58.395c11.618,0,22.529,3.384,31.622,9.244    c9.092-5.86,19.902-9.244,31.521-9.244C319.286,244.882,345.453,271.048,345.453,303.276z"/><path style="fill:#332E8E;" d="M255.487,249.234c-41.357-24.21-94.184,5.626-94.184,54.042c0,43.911,58.02,90.263,82.981,108.164    c3.348,2.38,7.269,3.571,11.195,3.571c3.934,0,7.869-1.194,11.233-3.587c24.928-17.971,82.907-64.481,82.907-108.147    C349.62,254.716,296.616,225.145,255.487,249.234z M261.861,404.646c-3.807,2.711-8.932,2.713-12.734,0.011    c-18.646-13.374-79.489-60.21-79.489-101.38c0-43.221,48.073-68.547,83.591-45.647c1.373,0.885,3.142,0.885,4.515,0    c35.385-22.814,83.54,2.367,83.54,45.647C341.284,343.093,285.725,387.443,261.861,404.646z"/><path style="fill:#332E8E;" d="M255.46,38.795c-38.066,0-69.037,30.971-69.037,69.038v16.526h-65.455    c-10.544,0-19.181,7.938-20.093,18.465L76.203,427.099c-0.904,10.026,2.488,20.052,9.307,27.511    c6.849,7.497,16.592,11.795,26.727,11.795h286.449c10.137,0,19.878-4.298,26.73-11.795c6.813-7.456,10.205-17.48,9.304-27.497    l-24.673-284.287c-0.909-10.528-9.546-18.467-20.09-18.467h-65.46v-16.526C324.497,69.766,293.526,38.795,255.46,38.795z     M194.759,107.833c0-33.471,27.232-60.702,60.701-60.702s60.701,27.232,60.701,60.702v16.526H194.759V107.833z M389.957,132.694    c6.186,0,11.252,4.664,11.787,10.851l24.673,284.289c0,0.003,0,0.008,0,0.014c0.705,7.812-1.837,15.32-7.155,21.14    c-5.275,5.771-12.775,9.082-20.576,9.082H112.237c-7.801,0-15.301-3.31-20.576-9.082c-5.318-5.82-7.861-13.328-7.155-21.154    l24.673-284.291c0.537-6.185,5.606-10.849,11.79-10.849h65.455v28.4c-10.738,1.97-18.907,11.378-18.907,22.677    c0,12.723,10.352,23.075,23.075,23.075s23.072-10.352,23.072-23.075c0-11.298-8.167-20.707-18.904-22.677v-28.4h121.402v28.4    c-10.738,1.97-18.904,11.378-18.904,22.677c0,12.723,10.349,23.075,23.072,23.075c12.723,0,23.075-10.352,23.075-23.075    c0-11.298-8.169-20.707-18.907-22.677v-28.4H389.957z M190.591,187.939c2.301,0,4.168-1.865,4.168-4.168v-14.064    c6.089,1.811,10.569,7.395,10.569,14.064c0,8.127-6.61,14.739-14.736,14.739s-14.739-6.613-14.739-14.739    c0-6.669,4.482-12.253,10.571-14.064v14.064C186.423,186.073,188.29,187.939,190.591,187.939z M320.329,187.939    c2.301,0,4.168-1.865,4.168-4.168v-14.064c6.09,1.811,10.571,7.395,10.571,14.064c0,8.127-6.613,14.739-14.739,14.739    c-8.127,0-14.736-6.613-14.736-14.739c0-6.669,4.48-12.253,10.569-14.064v14.064C316.161,186.073,318.028,187.939,320.329,187.939    z"/></g></g><g id="Layer_1"/></svg>