<?xml version="1.0"?><svg xmlns="http://www.w3.org/2000/svg" xmlns:xlink="http://www.w3.org/1999/xlink" version="1.1" viewBox="0 0 512 512" style="enable-background:new 0 0 512 512;" xml:space="preserve"><g id="_x31_8_Wifi_Modem"><g><linearGradient id="SVGID_1_" gradientUnits="userSpaceOnUse" x1="285.5213" y1="-214.3932" x2="226.0146" y2="892.4313"><stop offset="0" style="stop-color:#EAE9FE"/><stop offset="0.4236" style="stop-color:#EEEEFE"/><stop offset="0.8967" style="stop-color:#FBFBFF"/><stop offset="1" style="stop-color:#FFFFFF"/></linearGradient><path style="fill:url(#SVGID_1_);" d="M472.914,264.741c-9.683-7.535-21.378-14.027-25.882-25.439    c-6.125-15.52,3.665-32.176,9.439-47.831c17.628-47.798-4.997-104.402-45.589-135.186    C333.443-2.442,182.282,18.143,161.159,99.313c-8.936,34.337,7.073,73.513-9.306,104.987    c-20.667,39.713-75.492,42.391-110.802,60.05c-43.746,21.878-52.499,69.515-21.125,105.783    c11.521,13.318,26.263,22.493,36.829,37.044c15.288,21.055,23.863,44.338,44.319,61.705c28.805,24.456,76.964,30.52,102.464,2.636    c14.36-15.702,19.032-38.836,34.706-53.226c20.633-18.942,53.243-16.394,79.499-6.639c26.255,9.754,50.606,25.505,78.261,29.944    c43.239,6.94,89.602-18.431,107.066-58.591C520.534,342.846,507.476,291.635,472.914,264.741z"/><path style="fill:#EDEDED;" d="M117.073,40.907v179.516H86.925V40.907c0-8.322,6.716-15.112,15.036-15.112    c4.198,0,7.938,1.677,10.685,4.427C115.394,32.969,117.073,36.786,117.073,40.907z"/><path style="fill:#386E93;" d="M149.26,449.164v20.511c0,9.129-7.4,16.529-16.529,16.529H71.231    c-9.129,0-16.529-7.4-16.529-16.529v-20.511H149.26z"/><path style="fill:#386E93;" d="M466.464,449.164v20.511c0,9.129-7.4,16.529-16.529,16.529h-61.499    c-9.129,0-16.529-7.4-16.529-16.529v-20.511H466.464z"/><path style="fill:#EDEDED;" d="M505.422,337.811v92.637c0,12.646-10.252,22.897-22.897,22.897H38.641    c-12.646,0-22.897-10.252-22.897-22.897v-92.637c0-12.646,10.252-22.897,22.897-22.897h443.884    C495.171,314.913,505.422,325.165,505.422,337.811z"/><path style="fill:#F9BB40;" d="M130.602,206.532v108.381H73.359V206.532c0-5.48,4.442-9.922,9.922-9.922h37.399    C126.16,196.61,130.602,201.052,130.602,206.532z"/><path style="fill:#EDEDED;" d="M434.277,40.907v179.516h-30.148V40.907c0-8.322,6.716-15.112,15.036-15.112    c4.198,0,7.938,1.677,10.685,4.427C432.598,32.969,434.277,36.786,434.277,40.907z"/><path style="fill:#F9BB40;" d="M447.807,206.532v108.381h-57.244V206.532c0-5.48,4.442-9.922,9.922-9.922h37.399    C443.364,196.61,447.807,201.052,447.807,206.532z"/><path style="fill:#2769FD;" d="M433.586,384.096c0,13.348-10.787,24.201-24.135,24.201s-24.135-10.853-24.135-24.201    c0-13.282,10.787-24.135,24.135-24.135S433.586,370.814,433.586,384.096z"/><path style="fill:#FF5859;" d="M355.17,384.107c0,8.932-7.218,16.194-16.15,16.194s-16.15-7.262-16.15-16.194    c0-8.888,7.218-16.15,16.15-16.15S355.17,375.22,355.17,384.107z"/><path style="fill:#F9BB40;" d="M304.97,384.107c0,8.932-7.218,16.194-16.15,16.194s-16.15-7.262-16.15-16.194    c0-8.888,7.218-16.15,16.15-16.15S304.97,375.22,304.97,384.107z"/><path style="fill:#386E93;" d="M345.457,137.689c1.83,1.83,2.823,4.196,2.823,6.716c0,2.594-0.993,4.96-2.823,6.79    c-1.755,1.759-4.198,2.75-6.718,2.75c-2.517,0-4.96-0.991-6.718-2.75c-39.383-39.381-103.419-39.381-142.804,0    c-3.663,3.667-9.768,3.667-13.431,0c-1.834-1.83-2.825-4.196-2.825-6.79c0-2.519,0.991-4.886,2.825-6.716    c22.592-22.67,52.74-35.11,84.796-35.11C292.715,102.579,322.865,115.019,345.457,137.689z"/><path style="fill:#386E93;" d="M313.019,170.127c1.83,1.83,2.823,4.196,2.823,6.79c0,2.519-0.993,4.886-2.823,6.716    c-1.834,1.834-4.198,2.825-6.718,2.825c-2.596,0-4.96-0.991-6.792-2.825c-21.448-21.444-56.405-21.444-77.853,0    c-3.738,3.742-9.768,3.742-13.51,0c-1.83-1.83-2.823-4.196-2.823-6.716c0-2.594,0.993-4.96,2.823-6.79    C237.074,141.274,284.091,141.274,313.019,170.127z"/><path style="fill:#386E93;" d="M380.718,111.966c0,2.519-0.993,4.96-2.749,6.716c-1.83,1.834-4.196,2.825-6.792,2.825    c-2.517,0-4.884-0.991-6.718-2.825c-27.705-27.631-64.571-42.895-103.877-42.895s-76.172,15.265-103.877,42.895    c-3.742,3.742-9.772,3.742-13.51,0c-1.755-1.755-2.749-4.196-2.749-6.716s0.993-4.964,2.749-6.716    c31.292-31.294,72.965-48.545,117.387-48.545s86.095,17.251,117.387,48.545C379.725,107.002,380.718,109.447,380.718,111.966z"/><path style="fill:#386E93;" d="M283.475,220.767c0,12.661-10.232,22.955-22.892,22.955c-12.661,0-22.892-10.294-22.892-22.955    c0-12.598,10.231-22.892,22.892-22.892C273.243,197.875,283.475,208.169,283.475,220.767z"/><path style="fill:#332E8E;" d="M482.524,310.003h-29.807V206.532c0-7.733-5.969-14.03-13.53-14.701V40.907    c0-10.832-8.749-20.022-20.023-20.022c-10.998,0-19.947,8.982-19.947,20.022v150.921c-7.58,0.656-13.565,6.961-13.565,14.705    v103.471H135.514V206.532c0-7.732-5.968-14.028-13.53-14.701V40.907c0-10.832-8.749-20.022-20.023-20.022    c-10.998,0-19.947,8.982-19.947,20.022v150.921c-7.578,0.655-13.565,6.96-13.565,14.705v103.471H38.642    c-15.333,0-27.808,12.475-27.808,27.808v92.637c0,15.333,12.475,27.808,27.808,27.808H49.79v11.418    c0,11.821,9.617,21.44,21.44,21.44h61.499c11.823,0,21.44-9.618,21.44-21.44v-11.418h212.827v11.418    c0,11.821,9.617,21.44,21.44,21.44h61.499c11.823,0,21.44-9.618,21.44-21.44v-11.418h11.148c15.333,0,27.808-12.475,27.808-27.808    v-92.637C510.332,322.478,497.857,310.003,482.524,310.003z M419.164,30.706c5.729,0,10.202,4.669,10.202,10.2v150.793h-20.327    V40.907C409.038,35.283,413.581,30.706,419.164,30.706z M395.473,206.532c0-2.764,2.248-5.011,5.013-5.011h37.4    c2.762,0,5.01,2.248,5.01,5.011v103.471h-47.422V206.532z M101.961,30.706c5.729,0,10.202,4.669,10.202,10.2v150.793H91.835    V40.907C91.835,35.283,96.379,30.706,101.961,30.706z M78.27,206.532c0-2.764,2.248-5.011,5.01-5.011h37.4    c2.765,0,5.013,2.248,5.013,5.011v103.471H78.27V206.532z M144.348,469.675c0,6.407-5.211,11.618-11.618,11.618H71.23    c-6.407,0-11.618-5.211-11.618-11.618v-11.418h84.736V469.675z M461.554,469.675c0,6.407-5.211,11.618-11.618,11.618h-61.499    c-6.407,0-11.618-5.211-11.618-11.618v-11.418h84.736V469.675z M500.51,430.449c0,9.917-8.069,17.987-17.987,17.987H38.642    c-9.917,0-17.987-8.069-17.987-17.987v-92.637c0-9.917,8.069-17.987,17.987-17.987c55.338,0,386.943,0,443.881,0    c9.917,0,17.987,8.069,17.987,17.987V430.449z"/><path style="fill:#332E8E;" d="M409.451,355.05c-16.014,0-29.046,13.03-29.046,29.047c0,16.053,13.031,29.111,29.046,29.111    s29.046-13.059,29.046-29.111C438.496,368.08,425.465,355.05,409.451,355.05z M409.451,403.387    c-10.602,0-19.224-8.653-19.224-19.29c0-10.602,8.623-19.226,19.224-19.226s19.224,8.624,19.224,19.226    C428.675,394.734,420.052,403.387,409.451,403.387z"/><path style="fill:#332E8E;" d="M339.019,363.046c-11.612,0-21.059,9.447-21.059,21.061c0,11.637,9.447,21.106,21.059,21.106    c11.615,0,21.062-9.468,21.062-21.106C360.081,372.493,350.634,363.046,339.019,363.046z M339.019,395.391    c-6.196,0-11.238-5.063-11.238-11.284c0-6.198,5.042-11.239,11.238-11.239c6.199,0,11.241,5.042,11.241,11.239    C350.26,390.328,345.218,395.391,339.019,395.391z"/><path style="fill:#332E8E;" d="M288.821,363.046c-11.615,0-21.062,9.447-21.062,21.061c0,11.637,9.447,21.106,21.062,21.106    c11.612,0,21.059-9.468,21.059-21.106C309.88,372.493,300.433,363.046,288.821,363.046z M288.821,395.391    c-6.199,0-11.241-5.063-11.241-11.284c0-6.198,5.042-11.239,11.241-11.239c6.196,0,11.238,5.042,11.238,11.239    C300.059,390.328,295.017,395.391,288.821,395.391z"/><path style="fill:#332E8E;" d="M348.933,154.666c5.608-5.614,5.753-14.684,0.003-20.444    c-48.592-48.757-128.005-48.796-176.614-0.011c-5.816,5.792-5.577,14.9-0.01,20.455c5.582,5.586,14.789,5.597,20.378,0.002    c37.464-37.454,98.407-37.448,135.857,0C334.119,160.241,343.361,160.247,348.933,154.666z M185.744,147.725    c-1.694,1.688-4.792,1.691-6.487-0.006c-1.794-1.791-1.913-4.648,0.01-6.564c44.862-45.018,118.026-44.837,162.713,0.002    c0.003,0.002,0.003,0.003,0.006,0.005c1.916,1.92,1.789,4.77-0.003,6.565c-1.662,1.662-4.821,1.662-6.49-0.003    C294.212,106.439,227.037,106.441,185.744,147.725z"/><path style="fill:#332E8E;" d="M316.495,187.103c5.758-5.764,5.604-14.837,0-20.447c-0.003-0.003-0.006-0.005-0.006-0.006    c-30.826-30.746-80.986-30.746-111.818,0.006c-5.548,5.554-5.812,14.628,0.003,20.45c5.676,5.669,14.803,5.657,20.455-0.002    c19.547-19.545,51.358-19.55,70.905-0.002C301.575,192.648,310.655,192.933,316.495,187.103z M218.181,180.163    c-1.758,1.763-4.802,1.76-6.56,0c-1.914-1.914-1.795-4.77-0.006-6.559c27.003-26.929,70.937-26.926,97.933-0.003    c1.804,1.81,1.899,4.66,0,6.559c-1.861,1.866-4.77,1.798-6.567,0.002C279.602,156.782,241.566,156.785,218.181,180.163z"/><path style="fill:#332E8E;" d="M381.441,122.154c5.635-5.632,5.522-14.87,0-20.375c-66.681-66.694-175.023-66.705-241.713-0.005    c-5.578,5.565-5.581,14.803-0.006,20.378c5.669,5.672,14.798,5.66,20.452,0.006c55.458-55.312,145.338-55.336,200.813-0.006    C366.801,127.971,375.899,127.713,381.441,122.154z M153.232,115.21c-1.765,1.765-4.799,1.765-6.564,0    c-1.738-1.734-1.755-4.735,0-6.487c62.847-62.857,164.973-62.867,227.831,0.005c1.729,1.722,1.758,4.726-0.01,6.487    c-1.784,1.782-4.69,1.862-6.56-0.01C308.625,56.062,212.558,56.044,153.232,115.21z"/><path style="fill:#332E8E;" d="M232.779,220.767c0,15.365,12.472,27.866,27.802,27.866c15.333,0,27.805-12.501,27.805-27.866    c0-15.33-12.472-27.802-27.805-27.802C245.251,192.965,232.779,205.437,232.779,220.767z M278.565,220.767    c0,9.949-8.066,18.044-17.984,18.044c-9.914,0-17.98-8.095-17.98-18.044c0-9.914,8.066-17.98,17.98-17.98    C270.499,202.787,278.565,210.853,278.565,220.767z"/><path style="fill:#332E8E;" d="M62.825,346.75c-2.711,0-4.911,2.198-4.911,4.911v66.1c0,2.713,2.2,4.911,4.911,4.911    c2.711,0,4.911-2.198,4.911-4.911v-66.1C67.736,348.948,65.536,346.75,62.825,346.75z"/><path style="fill:#332E8E;" d="M104.726,346.75c-2.711,0-4.911,2.198-4.911,4.911v66.1c0,2.713,2.2,4.911,4.911,4.911    s4.911-2.198,4.911-4.911v-66.1C109.637,348.948,107.437,346.75,104.726,346.75z"/><path style="fill:#332E8E;" d="M146.63,346.75c-2.711,0-4.911,2.198-4.911,4.911v66.1c0,2.713,2.2,4.911,4.911,4.911    s4.911-2.198,4.911-4.911v-66.1C151.541,348.948,149.342,346.75,146.63,346.75z"/><path style="fill:#332E8E;" d="M188.532,346.75c-2.711,0-4.911,2.198-4.911,4.911v66.1c0,2.713,2.2,4.911,4.911,4.911    s4.911-2.198,4.911-4.911v-66.1C193.442,348.948,191.243,346.75,188.532,346.75z"/></g></g><g id="Layer_1"/></svg>