<?xml version="1.0"?><svg xmlns="http://www.w3.org/2000/svg" xmlns:xlink="http://www.w3.org/1999/xlink" version="1.1" viewBox="0 0 512 512" style="enable-background:new 0 0 512 512;" xml:space="preserve"><g id="_x32_5_Emergency_Call"><g><linearGradient id="SVGID_1_" gradientUnits="userSpaceOnUse" x1="282.3356" y1="-163.9059" x2="229.2504" y2="823.4789"><stop offset="0" style="stop-color:#EAE9FE"/><stop offset="0.4236" style="stop-color:#EEEEFE"/><stop offset="0.8967" style="stop-color:#FBFBFF"/><stop offset="1" style="stop-color:#FFFFFF"/></linearGradient><path style="fill:url(#SVGID_1_);" d="M449.506,263.524c-8.638-6.722-19.071-12.513-23.089-22.694    c-5.464-13.845,3.27-28.704,8.42-42.669c15.726-42.64-4.457-93.136-40.669-120.598c-69.082-52.39-203.931-34.026-222.774,38.385    c-7.971,30.632,6.31,65.58-8.302,93.657c-18.437,35.427-67.345,37.817-98.845,53.57c-39.025,19.517-46.833,62.014-18.845,94.368    c10.278,11.881,23.429,20.066,32.854,33.047c13.639,18.783,21.288,39.553,39.536,55.046c25.696,21.817,68.658,27.226,91.407,2.351    c12.81-14.007,16.978-34.645,30.961-47.482c18.406-16.898,47.498-14.625,70.92-5.923c23.422,8.702,45.145,22.753,69.815,26.712    c38.573,6.191,79.932-16.442,95.512-52.268S480.339,287.516,449.506,263.524z"/><path style="fill:#F9BB40;" d="M176.7,76.106c20.157,20.963,36.803,44.463,43.875,73.27c2.956,12.094-1.831,22.66-10.599,31.092    c-6.249,6.013-12.951,11.607-19.854,16.898c-17.939,13.807-21.635,26.338-12.111,47.452c13.925,30.857,36.4,55.313,60.789,78.057    c7.139,6.668,15.319,12.598,23.835,17.419c18.595,10.566,29.429,8.6,44.429-6.366c3.359-3.359,6.937-6.467,10.313-9.81    c24.255-24.02,43.824-18.561,65.241-2.049c14.63,11.271,28.438,24.037,40.65,37.861c12.346,13.992,10.196,26.96-3.343,39.49    c-19.569,18.057-39.759,34.955-66.988,40.515c-32.805,6.669-64.334,1.848-92.906-14.395    C180.261,380.138,123.218,314.46,91,228.223c-5.425-14.496-6.4-30.689-9.44-46.092c0.621-49.468,26.976-82.777,64.787-109.199    C156.879,65.558,168.268,67.338,176.7,76.106z"/><path style="fill:#FF5859;" d="M431.412,117.599v89.954c0,11.861-9.599,21.46-21.46,21.46h-91.257l-27.014,27.082    c-3.154,3.154-8.57,0.891-8.57-3.497v-23.586h-2.537c-11.861,0-21.46-9.599-21.46-21.46v-89.954    c0-11.861,9.599-21.391,21.46-21.391h129.378C421.813,96.208,431.412,105.738,431.412,117.599z"/><path style="fill:#EDEDED;" d="M383.48,181.967c-1.674,2.886-4.676,4.503-7.793,4.503c-1.501,0-3.06-0.404-4.445-1.212    l-8.65-4.985c-3.726-2.147-8.38,0.542-8.38,4.843v9.956c0,4.965-3.983,8.948-8.948,8.948c-4.965,0-8.948-3.983-8.948-8.948v-9.956    c0-4.301-4.654-6.99-8.38-4.843l-8.65,4.985c-1.385,0.808-2.944,1.212-4.445,1.212c-3.117,0-6.119-1.616-7.793-4.503    c-2.425-4.272-0.981-9.756,3.291-12.239l8.604-4.975c3.722-2.152,3.722-7.525,0-9.678l-8.604-4.975    c-4.272-2.482-5.715-7.967-3.291-12.239c2.482-4.272,7.967-5.715,12.239-3.291l8.65,4.985c3.726,2.147,8.38-0.542,8.38-4.843    v-9.956c0-4.907,3.983-8.948,8.948-8.948c4.965,0,8.948,4.041,8.948,8.948v9.956c0,4.301,4.654,6.99,8.38,4.843l8.65-4.985    c4.272-2.425,9.756-0.981,12.239,3.291c2.425,4.272,0.981,9.756-3.291,12.239l-8.604,4.975c-3.722,2.152-3.722,7.525,0,9.678    l8.604,4.975C384.461,172.21,385.904,177.695,383.48,181.967z"/><path style="fill:#332E8E;" d="M192.427,200.374c7.697-5.9,14.297-11.518,20.175-17.175c10.67-10.259,14.699-22.267,11.653-34.726    c-6.382-25.998-20.625-49.828-44.823-74.993c-10.045-10.448-23.557-11.845-35.254-3.654    c-44.735,31.261-65.836,66.931-66.405,112.256c-0.002,0.253,4.603,33.896,9.679,47.467    c32.153,86.065,89.587,153.114,170.71,199.286c29.421,16.726,61.564,21.721,95.537,14.814    c28.303-5.78,49.507-23.643,68.803-41.447c19.617-18.157,12.791-34.372,3.608-44.78c-12.167-13.773-26.021-26.678-41.176-38.351    c-18.865-14.543-41.957-25.637-70.219,2.356c-20.152,19.934-27.452,28.503-50.211,15.569    c-25.05-14.177-65.567-55.024-83.036-93.734C172.84,224.142,175.607,213.319,192.427,200.374z M174.557,246.379    c18.152,40.218,59.747,82.236,86.205,97.208c26.728,15.191,37.7,4.579,59.282-16.778c22.791-22.565,39.954-17.397,60.26-1.737    c14.775,11.38,28.274,23.954,40.121,37.365c10.533,11.938,9.584,22.486-3.07,34.199c-19.274,17.784-38.762,34.192-65.173,39.587    c-32.11,6.528-62.486,1.826-90.276-13.975c-79.536-45.269-135.843-110.996-167.358-195.353    c-5.182-13.847-6.228-29.892-9.194-45.106c0.654-42.488,20.734-76.101,63.166-105.753c8.678-6.076,17.953-5.093,25.448,2.696    c23.235,24.164,36.875,46.898,42.925,71.544c2.402,9.822-0.81,19.061-9.546,27.461c-5.673,5.459-12.062,10.897-19.538,16.626    C168.196,209.458,164.481,224.041,174.557,246.379z"/><path style="fill:#332E8E;" d="M435.201,117.599c0-13.884-11.327-25.18-25.249-25.18H280.575    c-13.922,0-25.249,11.296-25.249,25.18v89.955c0,13.502,10.652,24.563,23.996,25.22v19.824c0,3.538,2.131,6.708,5.431,8.074    c1.103,0.456,2.256,0.678,3.397,0.678c2.288,0,4.528-0.893,6.214-2.578l25.904-25.97h89.684c13.922,0,25.249-11.326,25.249-25.249    V117.599z M427.622,207.554c0,9.744-7.928,17.671-17.671,17.671h-91.256c-1.007,0-1.972,0.4-2.683,1.113l-27.011,27.08    c-0.501,0.498-1.061,0.37-1.348,0.254c-0.281-0.118-0.754-0.412-0.754-1.073v-23.584c0-2.092-1.696-3.789-3.789-3.789h-2.536    c-9.743,0-17.671-7.926-17.671-17.671v-89.955c0-9.705,7.928-17.602,17.671-17.602h129.377c9.743,0,17.671,7.897,17.671,17.602    V207.554z"/><path style="fill:#332E8E;" d="M382.086,166.448l-8.605-4.977c-0.782-0.451-0.898-1.169-0.898-1.557    c0-0.389,0.116-1.106,0.899-1.559l8.61-4.98c6.034-3.506,8.135-11.305,4.664-17.419c-3.506-6.03-11.302-8.13-17.407-4.67    l-8.65,4.984c-0.783,0.451-1.463,0.194-1.8,0c-0.336-0.195-0.899-0.655-0.899-1.559v-9.955c0-7.023-5.713-12.737-12.737-12.737    c-7.023,0-12.737,5.713-12.737,12.737v9.955c0,0.904-0.564,1.364-0.899,1.559c-0.335,0.194-1.016,0.453-1.8,0l-8.673-4.997    c-6.08-3.451-13.882-1.351-17.403,4.716c-3.454,6.082-1.352,13.882,4.688,17.39l8.605,4.977c0.782,0.451,0.898,1.169,0.898,1.558    c0,0.387-0.116,1.105-0.899,1.558l-8.61,4.98c-6.034,3.504-8.136,11.304-4.665,17.415c2.286,3.942,6.528,6.391,11.07,6.391    c2.22,0,4.417-0.597,6.338-1.717l8.65-4.984c0.782-0.453,1.462-0.194,1.8,0c0.336,0.195,0.899,0.655,0.899,1.559v9.955    c0,7.023,5.713,12.737,12.737,12.737c7.023,0,12.737-5.713,12.737-12.737v-9.955c0-0.904,0.564-1.364,0.899-1.559    c0.338-0.194,1.019-0.451,1.8,0l8.633,4.975c1.938,1.13,4.135,1.727,6.355,1.727c4.543,0,8.785-2.448,11.07-6.391    c0.006-0.01,0.012-0.02,0.017-0.03C390.227,177.757,388.126,169.958,382.086,166.448z M380.194,180.081    c-1.39,2.382-4.577,3.344-7.06,1.893l-8.65-4.984c-2.936-1.69-6.44-1.689-9.376,0.006c-2.934,1.695-4.686,4.73-4.686,8.12v9.955    c0,2.893-2.266,5.158-5.158,5.158c-2.892,0-5.158-2.266-5.158-5.158v-9.955c0-3.39-1.752-6.425-4.686-8.12    c-1.469-0.849-3.08-1.273-4.692-1.273c-1.608,0-3.217,0.422-4.684,1.267l-8.668,4.994c-2.432,1.42-5.673,0.46-7.033-1.888    c-1.41-2.483-0.559-5.664,1.892-7.088l8.602-4.975c2.934-1.696,4.685-4.73,4.685-8.119c0-3.39-1.75-6.424-4.684-8.119    l-8.597-4.972c-2.457-1.427-3.308-4.608-1.918-7.059c1.427-2.457,4.609-3.309,7.07-1.911l8.65,4.984    c2.937,1.692,6.441,1.689,9.376-0.006c2.934-1.695,4.686-4.73,4.686-8.12v-9.955c0-2.844,2.314-5.158,5.158-5.158    c2.844,0,5.158,2.314,5.158,5.158v9.955c0,3.39,1.752,6.425,4.686,8.12s6.439,1.699,9.376,0.006l8.628-4.972    c2.479-1.411,5.664-0.559,7.073,1.866c1.41,2.483,0.559,5.664-1.892,7.088l-8.602,4.975c-2.934,1.696-4.685,4.73-4.685,8.12    c0,3.388,1.75,6.423,4.684,8.118l8.597,4.972C380.737,174.429,381.59,177.6,380.194,180.081z"/></g></g><g id="Layer_1"/></svg>