<?xml version="1.0"?><svg xmlns="http://www.w3.org/2000/svg" xmlns:xlink="http://www.w3.org/1999/xlink" version="1.1" viewBox="0 0 512 512" style="enable-background:new 0 0 512 512;" xml:space="preserve"><g id="_x34_8_Calander"><g><linearGradient id="SVGID_1_" gradientUnits="userSpaceOnUse" x1="282.3356" y1="-163.9059" x2="229.2504" y2="823.4789"><stop offset="0" style="stop-color:#EAE9FE"/><stop offset="0.4236" style="stop-color:#EEEEFE"/><stop offset="0.8967" style="stop-color:#FBFBFF"/><stop offset="1" style="stop-color:#FFFFFF"/></linearGradient><path style="fill:url(#SVGID_1_);" d="M449.506,263.524c-8.638-6.722-19.071-12.513-23.089-22.694    c-5.464-13.845,3.27-28.704,8.42-42.669c15.726-42.64-4.457-93.136-40.669-120.598c-69.082-52.39-203.931-34.026-222.774,38.385    c-7.971,30.632,6.31,65.58-8.302,93.657c-18.437,35.427-67.345,37.817-98.845,53.57c-39.025,19.517-46.833,62.014-18.845,94.368    c10.278,11.881,23.429,20.066,32.854,33.047c13.639,18.783,21.288,39.553,39.536,55.046c25.696,21.817,68.658,27.226,91.407,2.351    c12.81-14.007,16.978-34.645,30.961-47.482c18.406-16.898,47.498-14.625,70.92-5.923c23.422,8.702,45.145,22.753,69.815,26.712    c38.573,6.191,79.932-16.442,95.512-52.268S480.339,287.516,449.506,263.524z"/><path style="fill:#EDEDED;" d="M445.919,124.587v225.564h-54.742c-13.078,0-23.679,10.601-23.679,23.679v54.741H90.733    c-13.078,0-23.679-10.601-23.679-23.679V124.587c0-13.078,10.601-23.679,23.679-23.679H422.24    C435.317,100.908,445.919,111.509,445.919,124.587z"/><path style="fill:#5EDB6B;" d="M445.918,124.577v59.431H67.063v-59.431c0-13.078,10.601-23.679,23.679-23.679h331.497    C435.317,100.898,445.918,111.499,445.918,124.577z"/><path style="fill:#EDEDED;" d="M445.919,350.151h-54.742c-13.078,0-23.679,10.601-23.679,23.679v54.741L445.919,350.151z"/><path style="fill:#EDEDED;" d="M144.644,140.332c0,7.276-5.914,13.164-13.19,13.164c-7.276,0-13.19-5.888-13.19-13.164    c0-7.302,5.914-13.189,13.19-13.189C138.73,127.143,144.644,133.031,144.644,140.332z"/><path style="fill:#EDEDED;" d="M394.717,140.332c0,7.276-5.914,13.164-13.19,13.164c-7.276,0-13.19-5.888-13.19-13.164    c0-7.302,5.914-13.189,13.19-13.189C388.804,127.143,394.717,133.031,394.717,140.332z"/><path style="fill:#FF5859;" d="M308.271,328.642c-2.268,4.032-6.552,6.3-10.836,6.3c-2.184,0-4.368-0.504-6.3-1.68l-22.092-12.767    v25.451c0,6.972-5.628,12.6-12.6,12.6c-6.888,0-12.6-5.628-12.6-12.6v-25.368l-22.007,12.684c-1.932,1.176-4.116,1.68-6.3,1.68    c-4.284,0-8.568-2.268-10.836-6.3c-3.528-5.964-1.428-13.692,4.536-17.22l22.007-12.684l-22.007-12.684    c-5.964-3.528-8.064-11.255-4.536-17.219c3.444-6.048,11.171-8.064,17.135-4.62l22.007,12.684v-25.368    c0-6.972,5.712-12.6,12.6-12.6c6.972,0,12.6,5.628,12.6,12.6v25.451l22.092-12.767c5.964-3.444,13.692-1.428,17.135,4.62    c3.528,5.964,1.428,13.692-4.536,17.219l-22.007,12.684l22.007,12.684C309.699,314.951,311.799,322.678,308.271,328.642z"/><path style="fill:#332E8E;" d="M422.238,97.108h-36.92v-22.38c0-2.092-1.697-3.789-3.789-3.789s-3.789,1.697-3.789,3.789v22.38    H135.243v-22.38c0-2.092-1.697-3.789-3.789-3.789s-3.789,1.697-3.789,3.789v22.38H90.741c-15.143,0-27.477,12.328-27.477,27.479    v280.305c0,15.145,12.322,27.467,27.47,27.467h276.765c1.042,0,2.022-0.453,2.679-1.11l78.42-78.42    c0.569-0.569,1.11-1.583,1.11-2.679c0-30.182,0-201.908,0-225.564v-0.01C449.708,109.431,437.385,97.108,422.238,97.108z     M70.853,124.578c0-10.967,8.916-19.881,19.881-19.881h36.93v19.099c-7.541,1.728-13.188,8.478-13.188,16.536    c0,9.347,7.615,16.953,16.978,16.953s16.98-7.606,16.98-16.953c0-8.058-5.649-14.808-13.191-16.536v-19.099h242.497v19.099    c-7.541,1.728-13.191,8.478-13.191,16.536c0,9.347,7.618,16.953,16.98,16.953s16.978-7.606,16.978-16.953    c0-8.058-5.647-14.808-13.188-16.536v-19.099h36.923c10.966,0,19.889,8.923,19.889,19.891v55.632H70.853V124.578z     M131.453,144.109c2.092,0,3.789-1.697,3.789-3.789v-8.575c3.298,1.461,5.612,4.754,5.612,8.587c0,5.168-4.218,9.374-9.402,9.374    s-9.399-4.206-9.399-9.374c0-3.833,2.313-7.125,5.61-8.587v8.574C127.664,142.412,129.361,144.109,131.453,144.109z     M381.529,144.109c2.092,0,3.789-1.697,3.789-3.789v-8.574c3.297,1.461,5.61,4.754,5.61,8.587c0,5.168-4.216,9.374-9.399,9.374    s-9.402-4.206-9.402-9.374c0-3.833,2.314-7.125,5.612-8.587v8.575C377.739,142.412,379.437,144.109,381.529,144.109z     M363.71,373.829v50.952H90.734c-10.968,0-19.891-8.923-19.891-19.889V187.799h371.287v158.564h-50.953    C376.032,346.362,363.71,358.685,363.71,373.829z M371.288,419.423v-45.594c0-10.966,8.923-19.889,19.889-19.889h45.594    L371.288,419.423z"/><path style="fill:#332E8E;" d="M311.563,266.961c-4.457-7.832-14.48-10.555-22.326-6.027l-16.405,9.483v-18.885    c0-9.036-7.352-16.388-16.388-16.388c-9.036,0-16.388,7.352-16.388,16.388v18.811l-16.324-9.409    c-7.998-4.615-17.971-1.623-22.291,5.973c-4.576,7.736-1.944,17.789,5.903,22.432l16.312,9.402l-16.349,9.421    c-7.934,4.695-10.348,14.835-5.908,22.338c4.606,8.186,15.133,10.434,22.331,6.047l16.326-9.411v18.811    c0,9.039,7.352,16.39,16.388,16.39c9.036,0,16.388-7.352,16.388-16.39v-18.885l16.331,9.439    c7.215,4.394,17.729,2.269,22.388-5.963c4.599-7.81,1.837-17.805-5.923-22.397l-16.312-9.399l16.349-9.424    C313.523,284.666,316.066,274.572,311.563,266.961z M301.843,282.771l-22.008,12.685c-1.174,0.676-1.897,1.929-1.897,3.284    c0,1.354,0.723,2.608,1.897,3.284l21.971,12.66c4.154,2.455,5.675,7.861,3.202,12.026c-0.015,0.025-0.027,0.049-0.042,0.074    c-2.47,4.393-8.124,5.514-11.935,3.197l-22.092-12.769c-1.174-0.676-2.617-0.676-3.792,0c-1.172,0.676-1.895,1.927-1.895,3.281    v25.452c0,4.86-3.952,8.812-8.809,8.812c-4.857,0-8.81-3.952-8.81-8.812v-25.368c0-1.354-0.723-2.603-1.895-3.281    c-0.585-0.338-1.241-0.508-1.895-0.508c-0.654,0-1.307,0.168-1.892,0.506l-22.087,12.732c-3.647,2.219-9.34,1.24-11.903-3.313    c-2.45-4.14-1.011-9.535,3.165-12.007l22.008-12.683c1.174-0.676,1.897-1.929,1.897-3.284c0-1.354-0.723-2.608-1.897-3.284    l-21.971-12.663c-4.214-2.494-5.649-7.889-3.17-12.083c2.393-4.21,7.783-5.616,11.95-3.212l22.008,12.685    c1.169,0.676,2.617,0.673,3.787-0.002c1.172-0.678,1.895-1.927,1.895-3.281v-25.368c0-4.857,3.952-8.809,8.81-8.809    c4.857,0,8.809,3.952,8.809,8.809v25.452c0,1.354,0.723,2.605,1.895,3.281c1.174,0.676,2.617,0.676,3.792,0l22.089-12.769    C303.137,261.675,311.755,276.915,301.843,282.771z"/></g></g><g id="Layer_1"/></svg>