<?xml version="1.0"?><svg xmlns="http://www.w3.org/2000/svg" xmlns:xlink="http://www.w3.org/1999/xlink" version="1.1" viewBox="0 0 512 512" style="enable-background:new 0 0 512 512;" xml:space="preserve"><g id="_x31_2_Gamepad"><g><linearGradient id="SVGID_1_" gradientUnits="userSpaceOnUse" x1="284.9663" y1="-205.8512" x2="226.5783" y2="880.1656"><stop offset="0" style="stop-color:#EAE9FE"/><stop offset="0.4236" style="stop-color:#EEEEFE"/><stop offset="0.8967" style="stop-color:#FBFBFF"/><stop offset="1" style="stop-color:#FFFFFF"/></linearGradient><path style="fill:url(#SVGID_1_);" d="M468.836,264.275c-9.501-7.393-20.976-13.763-25.395-24.961    c-6.01-15.229,3.596-31.571,9.261-46.931c17.297-46.899-4.903-102.439-44.732-132.645    c-75.982-57.623-224.302-37.425-245.028,42.219c-8.768,33.692,6.941,72.131-9.131,103.013    c-20.278,38.966-74.073,41.594-108.719,58.921C2.169,285.358-6.419,332.1,24.365,367.686    c11.304,13.068,25.769,22.07,36.136,36.348c15.001,20.659,23.415,43.504,43.486,60.545c28.263,23.996,75.517,29.946,100.538,2.586    c14.089-15.407,18.674-38.106,34.054-52.225c20.245-18.586,52.242-16.086,78.004-6.514c25.762,9.571,49.654,25.026,76.789,29.381    c42.426,6.81,87.917-18.085,105.053-57.489S502.748,290.664,468.836,264.275z"/><path style="fill:#EDEDED;" d="M259.225,224.647c-5.357,0-9.698-4.341-9.698-9.698V159.99c0-24.598,20.011-44.608,44.608-44.608    c13.902,0,25.213-11.311,25.213-25.216V59.788c0-5.357,4.341-9.698,9.698-9.698s9.698,4.341,9.698,9.698v30.378    c0,24.598-20.011,44.612-44.608,44.612c-13.902,0-25.213,11.311-25.213,25.213v54.959    C268.923,220.307,264.582,224.647,259.225,224.647z"/><path style="fill:#EDEDED;" d="M421.721,461.295c-2.099,0.41-4.242,0.615-6.387,0.615c-27.665,0-57.612-23.788-75.06-71.73    c-4.767-13.091-16.741-22.625-30.653-23.515c-0.821-0.068-1.665-0.091-2.486-0.091H204.865c-0.821,0-1.665,0.023-2.486,0.091    c-13.912,0.89-25.886,10.424-30.653,23.515c-17.448,47.942-47.395,71.73-75.06,71.73c-2.144,0-4.288-0.205-6.386-0.615    c-34.919-6.842-51.021-69.154-35.945-139.15c6.683-31.019,18.36-58.365,32.341-78.572c15.601-22.581,41.533-35.763,68.97-35.763    h200.708c27.438,0,53.37,13.182,68.97,35.763c13.981,20.207,25.659,47.553,32.341,78.572    C472.742,392.141,456.639,454.453,421.721,461.295z"/><path style="fill:#FF5859;" d="M184.652,301.458c0,7.123-5.738,12.861-12.861,12.861h-22.852v22.754    c0,7.123-5.737,12.861-12.861,12.861c-7.024,0-12.861-5.738-12.861-12.861v-22.754h-22.753c-7.024,0-12.861-5.737-12.861-12.861    c0-7.123,5.836-12.861,12.861-12.861h22.753v-22.753c0-7.123,5.837-12.861,12.861-12.861c7.123,0,12.861,5.737,12.861,12.861    v22.753h22.852C178.914,288.598,184.652,294.336,184.652,301.458z"/><circle style="fill:#FF5859;" cx="375.872" cy="268.837" r="15.903"/><circle style="fill:#5EDB6B;" cx="375.872" cy="334.08" r="15.903"/><circle style="fill:#2769FD;" cx="343.251" cy="301.458" r="15.903"/><circle style="fill:#F9BB40;" cx="408.494" cy="301.458" r="15.903"/><path style="fill:#332E8E;" d="M428.752,241.204c-16.249-23.52-43.314-37.561-72.398-37.561h-83.263V159.99    c0-11.604,9.441-21.045,21.045-21.045c26.895,0,48.776-21.882,48.776-48.779V59.788c0-7.645-6.22-13.865-13.865-13.865    c-7.645,0-13.865,6.22-13.865,13.865v30.378c0,11.605-9.441,21.048-21.045,21.048c-26.895,0-48.776,21.881-48.776,48.776v43.653    h-89.714c-29.085,0-56.149,14.042-72.397,37.559c-14.739,21.301-26.454,49.736-32.989,80.065    c-10.666,49.521-6.347,96.895,11.273,123.637c29.61,44.937,89.151,15.278,114.11-53.298c4.316-11.851,14.914-20.007,27.08-20.786    c1.564-0.132-4.26-0.059,104.412-0.077c13.67,0,24.828,8.793,29.223,20.863c14.361,39.457,45.398,79.691,86.165,73.78    c10.855-2.127,20.517-9.209,27.945-20.482c17.619-26.742,21.938-74.116,11.273-123.637    C455.205,290.938,443.49,262.503,428.752,241.204z M253.696,159.99c0-22.299,18.142-40.44,40.44-40.44    c16.2,0,29.381-13.182,29.381-29.383V59.788c0-3.05,2.48-5.53,5.53-5.53c3.05,0,5.53,2.48,5.53,5.53v30.378    c0,22.3-18.142,40.443-40.44,40.443c-16.2,0-29.381,13.18-29.381,29.381v43.653h-11.06V159.99z M443.506,440.316    c-8.382,12.723-18.419,17.425-28.172,17.425c-28.397,0-55.657-26.434-71.144-68.988c-5.537-15.202-19.689-26.347-37.057-26.347    c-108.007,0.03-102.825-0.081-105.022,0.099c-15.39,0.985-28.855,11.288-34.304,26.248    c-15.487,42.554-42.747,68.988-71.144,68.988c-9.751,0-19.789-4.701-28.172-17.425c-16.184-24.56-20.141-70.602-10.086-117.294    c6.31-29.283,17.565-56.657,31.696-77.08c14.693-21.266,39.195-33.963,65.542-33.963h200.708    c26.347,0,50.849,12.697,65.543,33.966c14.13,20.421,25.385,47.795,31.695,77.078C463.648,369.714,459.69,415.756,443.506,440.316    z"/><path style="fill:#332E8E;" d="M171.791,284.43h-18.684v-18.585c0-9.39-7.64-17.028-17.029-17.028    c-9.39,0-17.028,7.638-17.028,17.028v18.585h-18.585c-9.39,0-17.029,7.64-17.029,17.029c0,9.39,7.64,17.028,17.029,17.028h18.585    v18.587c0,9.39,7.638,17.028,17.028,17.028c9.39,0,17.029-7.638,17.029-17.028v-18.587h18.684c9.39,0,17.029-7.638,17.029-17.028    C188.82,292.069,181.18,284.43,171.791,284.43z M171.791,310.151h-22.852c-2.302,0-4.168,1.865-4.168,4.168v22.754    c0,4.793-3.9,8.692-8.694,8.692c-4.793,0-8.692-3.899-8.692-8.692v-22.754c0-2.302-1.865-4.168-4.168-4.168h-22.753    c-4.793,0-8.694-3.899-8.694-8.692c0-4.793,3.9-8.694,8.694-8.694h22.753c2.302,0,4.168-1.865,4.168-4.168v-22.753    c0-4.793,3.899-8.692,8.692-8.692c4.793,0,8.694,3.899,8.694,8.692v22.753c0,2.302,1.865,4.168,4.168,4.168h22.852    c4.793,0,8.694,3.9,8.694,8.694C180.484,306.252,176.584,310.151,171.791,310.151z"/><path style="fill:#332E8E;" d="M375.873,288.908c11.067,0,20.071-9.004,20.071-20.071s-9.004-20.071-20.071-20.071    c-11.067,0-20.071,9.004-20.071,20.071S364.806,288.908,375.873,288.908z M375.873,257.102c6.471,0,11.735,5.264,11.735,11.735    c0,6.471-5.264,11.735-11.735,11.735c-6.471,0-11.735-5.264-11.735-11.735C364.137,262.366,369.401,257.102,375.873,257.102z"/><path style="fill:#332E8E;" d="M375.873,314.009c-11.067,0-20.071,9.004-20.071,20.071c0,11.067,9.004,20.07,20.071,20.07    c11.067,0,20.071-9.003,20.071-20.07C395.943,323.014,386.939,314.009,375.873,314.009z M375.873,345.814    c-6.471,0-11.735-5.264-11.735-11.734c0-6.471,5.264-11.735,11.735-11.735c6.471,0,11.735,5.264,11.735,11.735    C387.608,340.55,382.344,345.814,375.873,345.814z"/><path style="fill:#332E8E;" d="M363.322,301.459c0-11.067-9.004-20.071-20.071-20.071c-11.067,0-20.071,9.004-20.071,20.071    c0,11.067,9.004,20.071,20.071,20.071C354.317,321.53,363.322,312.525,363.322,301.459z M343.251,313.194    c-6.471,0-11.735-5.264-11.735-11.735c0-6.471,5.264-11.735,11.735-11.735c6.471,0,11.735,5.264,11.735,11.735    C354.986,307.93,349.722,313.194,343.251,313.194z"/><path style="fill:#332E8E;" d="M408.494,281.388c-11.067,0-20.071,9.004-20.071,20.071c0,11.067,9.004,20.071,20.071,20.071    s20.071-9.004,20.071-20.071C428.565,290.392,419.561,281.388,408.494,281.388z M408.494,313.194    c-6.471,0-11.735-5.264-11.735-11.735c0-6.471,5.264-11.735,11.735-11.735c6.471,0,11.735,5.264,11.735,11.735    C420.23,307.93,414.966,313.194,408.494,313.194z"/><path style="fill:#332E8E;" d="M232.075,298.389c-1.92-1.278-4.506-0.76-5.78,1.156l-23.799,35.701    c-1.277,1.916-0.76,4.503,1.156,5.78c0.711,0.473,1.514,0.7,2.308,0.7c1.347,0,2.669-0.651,3.472-1.856l23.799-35.701    C234.508,302.252,233.991,299.665,232.075,298.389z"/><path style="fill:#332E8E;" d="M270.212,298.389c-1.92-1.278-4.503-0.76-5.78,1.156l-23.8,35.701    c-1.277,1.916-0.76,4.503,1.156,5.78c0.711,0.473,1.514,0.7,2.308,0.7c1.347,0,2.669-0.651,3.472-1.856l23.8-35.701    C272.645,302.252,272.128,299.665,270.212,298.389z"/><path style="fill:#332E8E;" d="M308.347,298.389c-1.918-1.278-4.504-0.76-5.78,1.156l-23.799,35.701    c-1.277,1.916-0.76,4.503,1.156,5.78c0.711,0.473,1.514,0.7,2.308,0.7c1.347,0,2.669-0.651,3.472-1.856l23.799-35.701    C310.78,302.252,310.263,299.665,308.347,298.389z"/></g></g><g id="Layer_1"/></svg>