<?xml version="1.0"?><svg xmlns="http://www.w3.org/2000/svg" xmlns:xlink="http://www.w3.org/1999/xlink" version="1.1" viewBox="0 0 512 512" style="enable-background:new 0 0 512 512;" xml:space="preserve"><g id="_x33_0_Favorit_Folder"><g><linearGradient id="SVGID_1_" gradientUnits="userSpaceOnUse" x1="284.9663" y1="-205.8513" x2="226.5783" y2="880.1656"><stop offset="0" style="stop-color:#EAE9FE"/><stop offset="0.4236" style="stop-color:#EEEEFE"/><stop offset="0.8967" style="stop-color:#FBFBFF"/><stop offset="1" style="stop-color:#FFFFFF"/></linearGradient><path style="fill:url(#SVGID_1_);" d="M468.836,264.275c-9.502-7.393-20.977-13.763-25.396-24.961    c-6.009-15.229,3.597-31.571,9.261-46.931c17.296-46.9-4.903-102.439-44.732-132.645    c-75.982-57.623-224.302-37.425-245.028,42.219c-8.768,33.692,6.94,72.131-9.131,103.013    c-20.278,38.966-74.073,41.594-108.719,58.921C2.169,285.358-6.419,332.1,24.365,367.686    c11.304,13.068,25.769,22.07,36.136,36.348c15.001,20.659,23.415,43.504,43.486,60.545c28.263,23.996,75.517,29.946,100.538,2.586    c14.09-15.407,18.675-38.106,34.054-52.225c20.245-18.586,52.242-16.086,78.004-6.514c25.762,9.571,49.655,25.026,76.789,29.381    c42.426,6.81,87.917-18.085,105.053-57.489C515.561,340.912,502.748,290.664,468.836,264.275z"/><g><g><path style="fill:#D8901D;" d="M412.031,129.567v193.251c0,13.854-11.244,25.097-25.097,25.097H125.066      c-13.854,0-25.097-11.244-25.097-25.097V93.627c0-13.854,11.244-25.097,25.097-25.097h67.613c8.132,0,15.912,3.263,21.584,9.085      l26.252,26.854h146.419C400.787,104.47,412.031,115.713,412.031,129.567z"/><path style="fill:#F9BB40;" d="M412.031,156.124v166.694c0,13.861-11.237,25.097-25.097,25.097H125.066      c-13.861,0-25.097-11.237-25.097-25.097V156.124c0-13.861,11.237-25.097,25.097-25.097h261.867      C400.795,131.026,412.031,142.263,412.031,156.124z"/><ellipse transform="matrix(0.9871 -0.1602 0.1602 0.9871 -52.4247 45.4997)" style="fill:#FF5859;" cx="256" cy="347.915" rx="95.557" ry="95.556"/><path style="fill:#EDEDED;" d="M264.253,401.149c-5.014,3.388-11.519,3.388-16.533,0c-15.245-10.57-46.413-35.572-45.465-63.758      c0.678-18.972,17.821-34.014,36.725-32.455c6.369,0.474,12.196,2.778,17.006,6.369c5.895-4.336,13.077-6.708,20.936-6.505      c16.262,0.474,30.422,12.941,32.523,29.067C313.376,363.477,280.174,390.173,264.253,401.149z"/><path style="fill:#332E8E;" d="M386.933,100.72H242.091L216.947,75c-6.326-6.495-15.171-10.22-24.268-10.22h-67.612      c-15.906,0-28.848,12.941-28.848,28.848v62.496v166.694c0,15.906,12.942,28.848,28.848,28.848h31.721      c1.982,53.022,45.711,95.554,99.211,95.554c53.501,0,97.23-42.532,99.211-95.554h31.721c15.906,0,28.848-12.942,28.848-28.848      V156.124v-26.556C415.78,113.661,402.838,100.72,386.933,100.72z M256,439.72c-50.623,0-91.807-41.184-91.807-91.804      c0-50.623,41.184-91.807,91.807-91.807s91.807,41.184,91.807,91.807C347.807,398.536,306.623,439.72,256,439.72z       M408.28,322.818c0,11.77-9.578,21.348-21.348,21.348h-31.721c-1.981-53.025-45.71-95.557-99.211-95.557      c-53.501,0-97.23,42.532-99.211,95.557h-31.721c-11.77,0-21.348-9.578-21.348-21.348V156.124      c0-11.771,9.578-21.348,21.348-21.348h261.865c11.77,0,21.348,9.576,21.348,21.348V322.818z M408.28,136.79      c-5.282-5.827-12.883-9.514-21.348-9.514H125.067c-8.465,0-16.066,3.687-21.348,9.514V93.628      c0-11.771,9.578-21.348,21.348-21.348h67.612c7.085,0,13.972,2.898,18.901,7.957l26.252,26.854      c0.706,0.723,1.672,1.129,2.681,1.129h146.418c11.77,0,21.348,9.576,21.348,21.348V136.79z"/><path style="fill:#332E8E;" d="M277.021,301.053c-7.532-0.217-14.771,1.768-21.023,5.706      c-5.032-3.203-10.762-5.117-16.709-5.562c-10.095-0.84-20.33,2.651-28.096,9.551c-7.705,6.846-12.327,16.506-12.686,26.516      c-0.981,29.189,29.072,54.485,47.112,66.992c3.149,2.126,6.758,3.191,10.366,3.191c3.611,0,7.219-1.064,10.366-3.193      c0.01-0.005,0.02-0.012,0.029-0.017c19.224-13.254,50.867-40.083,46.782-70.852      C310.834,315.484,295.299,301.585,277.021,301.053z M262.138,398.05c-3.743,2.529-8.579,2.52-12.283,0.017      c-13.481-9.348-44.746-33.96-43.853-60.542c0.286-7.964,3.992-15.679,10.171-21.169c5.637-5.01,12.871-7.778,20.173-7.778      c0.784,0,1.57,0.032,2.354,0.098c5.449,0.408,10.649,2.356,15.042,5.635c1.323,0.989,3.137,0.996,4.465,0.015      c5.378-3.953,11.777-5.952,18.606-5.776c14.624,0.427,27.053,11.519,28.914,25.813      C309.418,362.169,276.488,388.158,262.138,398.05z"/><path style="fill:#332E8E;" d="M228.278,164.101h-99.69c-2.07,0-3.75,1.678-3.75,3.75s1.68,3.75,3.75,3.75h99.69      c2.07,0,3.75-1.678,3.75-3.75S230.348,164.101,228.278,164.101z"/><path style="fill:#332E8E;" d="M185.216,195.968h-56.628c-2.07,0-3.75,1.678-3.75,3.75s1.68,3.75,3.75,3.75h56.628      c2.07,0,3.75-1.678,3.75-3.75S187.287,195.968,185.216,195.968z"/></g><path style="fill:#D8901D;" d="M412.031,129.567v193.251c0,13.854-11.244,25.097-25.097,25.097H125.066     c-13.854,0-25.097-11.244-25.097-25.097V93.627c0-13.854,11.244-25.097,25.097-25.097h67.613c8.132,0,15.912,3.263,21.584,9.085     l26.252,26.854h146.419C400.787,104.47,412.031,115.713,412.031,129.567z"/><path style="fill:#F9BB40;" d="M412.031,156.124v166.694c0,13.861-11.237,25.097-25.097,25.097H125.066     c-13.861,0-25.097-11.237-25.097-25.097V156.124c0-13.861,11.237-25.097,25.097-25.097h261.867     C400.795,131.026,412.031,142.263,412.031,156.124z"/><ellipse transform="matrix(0.9871 -0.1602 0.1602 0.9871 -52.4247 45.4997)" style="fill:#FF5859;" cx="256" cy="347.915" rx="95.557" ry="95.556"/><path style="fill:#EDEDED;" d="M264.253,401.149c-5.014,3.388-11.519,3.388-16.533,0c-15.245-10.57-46.413-35.572-45.465-63.758     c0.678-18.972,17.821-34.014,36.725-32.455c6.369,0.474,12.196,2.778,17.006,6.369c5.895-4.336,13.077-6.708,20.936-6.505     c16.262,0.474,30.422,12.941,32.523,29.067C313.376,363.477,280.174,390.173,264.253,401.149z"/><path style="fill:#332E8E;" d="M386.933,100.72H242.091L216.947,75c-6.326-6.495-15.171-10.22-24.268-10.22h-67.612     c-15.906,0-28.848,12.941-28.848,28.848v62.496v166.694c0,15.906,12.942,28.848,28.848,28.848h31.721     c1.982,53.022,45.711,95.554,99.211,95.554c53.501,0,97.23-42.532,99.211-95.554h31.721c15.906,0,28.848-12.942,28.848-28.848     V156.124v-26.556C415.78,113.661,402.838,100.72,386.933,100.72z M256,439.72c-50.623,0-91.807-41.184-91.807-91.804     c0-50.623,41.184-91.807,91.807-91.807s91.807,41.184,91.807,91.807C347.807,398.536,306.623,439.72,256,439.72z M408.28,322.818     c0,11.77-9.578,21.348-21.348,21.348h-31.721c-1.981-53.025-45.71-95.557-99.211-95.557c-53.501,0-97.23,42.532-99.211,95.557     h-31.721c-11.77,0-21.348-9.578-21.348-21.348V156.124c0-11.771,9.578-21.348,21.348-21.348h261.865     c11.77,0,21.348,9.576,21.348,21.348V322.818z M408.28,136.79c-5.282-5.827-12.883-9.514-21.348-9.514H125.067     c-8.465,0-16.066,3.687-21.348,9.514V93.628c0-11.771,9.578-21.348,21.348-21.348h67.612c7.085,0,13.972,2.898,18.901,7.957     l26.252,26.854c0.706,0.723,1.672,1.129,2.681,1.129h146.418c11.77,0,21.348,9.576,21.348,21.348V136.79z"/><path style="fill:#332E8E;" d="M277.021,301.053c-7.532-0.217-14.771,1.768-21.023,5.706c-5.032-3.203-10.762-5.117-16.709-5.562     c-10.095-0.84-20.33,2.651-28.096,9.551c-7.705,6.846-12.327,16.506-12.686,26.516c-0.981,29.189,29.072,54.485,47.112,66.992     c3.149,2.126,6.758,3.191,10.366,3.191c3.611,0,7.219-1.064,10.366-3.193c0.01-0.005,0.02-0.012,0.029-0.017     c19.224-13.254,50.867-40.083,46.782-70.852C310.834,315.484,295.299,301.585,277.021,301.053z M262.138,398.05     c-3.743,2.529-8.579,2.52-12.283,0.017c-13.481-9.348-44.746-33.96-43.853-60.542c0.286-7.964,3.992-15.679,10.171-21.169     c5.637-5.01,12.871-7.778,20.173-7.778c0.784,0,1.57,0.032,2.354,0.098c5.449,0.408,10.649,2.356,15.042,5.635     c1.323,0.989,3.137,0.996,4.465,0.015c5.378-3.953,11.777-5.952,18.606-5.776c14.624,0.427,27.053,11.519,28.914,25.813     C309.418,362.169,276.488,388.158,262.138,398.05z"/><path style="fill:#332E8E;" d="M228.278,164.101h-99.69c-2.07,0-3.75,1.678-3.75,3.75s1.68,3.75,3.75,3.75h99.69     c2.07,0,3.75-1.678,3.75-3.75S230.348,164.101,228.278,164.101z"/><path style="fill:#332E8E;" d="M185.216,195.968h-56.628c-2.07,0-3.75,1.678-3.75,3.75s1.68,3.75,3.75,3.75h56.628     c2.07,0,3.75-1.678,3.75-3.75S187.287,195.968,185.216,195.968z"/></g></g></g><g id="Layer_1"/></svg>