<?xml version="1.0"?><svg xmlns="http://www.w3.org/2000/svg" xmlns:xlink="http://www.w3.org/1999/xlink" version="1.1" viewBox="0 0 512 512" style="enable-background:new 0 0 512 512;" xml:space="preserve"><g id="_x34_5_Photos"><g><linearGradient id="SVGID_1_" gradientUnits="userSpaceOnUse" x1="284.9663" y1="-205.8512" x2="226.5783" y2="880.1655"><stop offset="0" style="stop-color:#EAE9FE"/><stop offset="0.4236" style="stop-color:#EEEEFE"/><stop offset="0.8967" style="stop-color:#FBFBFF"/><stop offset="1" style="stop-color:#FFFFFF"/></linearGradient><path style="fill:url(#SVGID_1_);" d="M468.836,264.275c-9.501-7.393-20.976-13.763-25.395-24.961    c-6.01-15.229,3.596-31.571,9.261-46.931c17.297-46.899-4.903-102.439-44.732-132.645    c-75.982-57.623-224.302-37.425-245.028,42.219c-8.768,33.692,6.941,72.131-9.131,103.013    c-20.278,38.966-74.073,41.594-108.719,58.921C2.169,285.358-6.419,332.1,24.365,367.686    c11.304,13.068,25.769,22.07,36.136,36.348c15.001,20.659,23.415,43.504,43.486,60.545c28.263,23.996,75.517,29.946,100.538,2.586    c14.089-15.407,18.674-38.106,34.054-52.225c20.245-18.586,52.242-16.086,78.004-6.514c25.762,9.571,49.654,25.026,76.789,29.381    c42.426,6.81,87.917-18.085,105.053-57.489C515.561,340.912,502.748,290.664,468.836,264.275z"/><path style="fill:#FF5859;" d="M352.269,66.855l89.844,284.431c4.177,13.224-3.202,27.418-16.426,31.595l-246.236,77.779    c-13.224,4.177-27.418-3.202-31.595-16.426L58.012,159.803c-4.177-13.224,3.202-27.418,16.426-31.595l246.236-77.779    C333.899,46.252,348.092,53.631,352.269,66.855z"/><path style="fill:#EDEDED;" d="M328.645,94.955l50.85,160.981c2.31,7.314-1.71,15.165-9.024,17.475l-208.706,65.925    c-7.314,2.31-15.115-1.807-17.425-9.121l-50.85-160.981c-2.31-7.314,1.733-15.091,9.047-17.401l208.706-65.925    C318.558,83.598,326.335,87.641,328.645,94.955z"/><path style="fill:#2769FD;" d="M454.08,149.987v286.662c0,13.868-11.312,25.18-25.18,25.18H170.672    c-13.868,0-25.18-11.312-25.18-25.18V149.987c0-13.868,11.312-25.18,25.18-25.18h258.229    C442.769,124.807,454.08,136.119,454.08,149.987z"/><path style="fill:#EDEDED;" d="M423.09,169.666v168.821c0,7.67-6.198,13.946-13.868,13.946H190.351    c-7.671,0-13.869-6.276-13.869-13.946V169.666c0-7.67,6.198-13.868,13.869-13.868h218.871    C416.892,155.798,423.09,161.996,423.09,169.666z"/><path style="fill:#F9BB40;" d="M374.136,252.922l-17.386,16.943c-3.847,3.773-5.586,9.137-4.698,14.427l4.106,24.008    c2.294,13.317-11.689,23.453-23.638,17.164l-21.53-11.32c-4.735-2.515-10.432-2.515-15.167,0l-21.53,11.32    c-11.948,6.289-25.932-3.847-23.638-17.164l4.106-24.008c0.888-5.29-0.851-10.654-4.698-14.427l-17.386-16.943    c-9.692-9.433-4.328-25.858,9.026-27.781l24.082-3.514c5.29-0.777,9.877-4.106,12.244-8.915l10.765-21.788    c5.993-12.133,23.231-12.133,29.224,0l10.765,21.788c2.367,4.809,6.954,8.138,12.244,8.915l24.082,3.514    C378.464,227.064,383.828,243.489,374.136,252.922z"/><path style="fill:#332E8E;" d="M428.901,120.639h-55.272l-17.386-55.041c-4.845-15.34-21.298-24.036-36.823-19.143L73.183,124.234    c-15.43,4.873-24.021,21.39-19.144,36.826l87.33,276.471c0.472,15.773,13.418,28.467,29.303,28.467h1.063    c0.045,0,0.09,0.008,0.135,0.008c0.071,0,0.141-0.007,0.212-0.008h256.819c16.183,0,29.348-13.165,29.348-29.348V149.987    C458.249,133.804,445.083,120.639,428.901,120.639z M75.693,132.184l246.238-77.779c11.004-3.485,22.871,2.644,26.365,13.705    l16.592,52.528h-23.759l-8.51-26.941c-2.996-9.481-13.145-14.753-22.63-11.765L187.45,120.639h-16.778    c-10.132,0-19.079,5.162-24.354,12.992l-45.036,14.226c-9.482,2.998-14.759,13.149-11.765,22.632l50.85,160.982    c0.251,0.794,0.608,1.532,0.958,2.272v75.973L61.986,158.547C58.501,147.513,64.653,135.667,75.693,132.184z M332.388,120.639    H215.13l97.37-30.756c0.969-0.307,1.95-0.453,2.914-0.453c4.12,0,7.953,2.648,9.258,6.781L332.388,120.639z M141.324,306.831    L97.464,167.976c-1.609-5.098,1.229-10.558,6.329-12.17l38.218-12.072c-0.44,2.017-0.686,4.105-0.686,6.252V306.831z     M449.913,436.65c0,11.586-9.426,21.012-21.012,21.012H170.672c-11.586,0-21.012-9.426-21.012-21.012V149.987    c0-11.586,9.426-21.012,21.012-21.012h258.229c11.586,0,21.012,9.426,21.012,21.012V436.65z"/><path style="fill:#332E8E;" d="M409.222,151.631H190.351c-9.945,0-18.036,8.091-18.036,18.036v168.821    c0,9.988,8.091,18.112,18.036,18.112h218.871c9.945,0,18.036-8.124,18.036-18.112V169.667    C427.258,159.722,419.167,151.631,409.222,151.631z M418.922,338.488c0,5.392-4.351,9.776-9.7,9.776H190.351    c-5.349,0-9.7-4.385-9.7-9.776V169.667c0-5.348,4.351-9.7,9.7-9.7h218.871c5.349,0,9.7,4.352,9.7,9.7V338.488z"/><path style="fill:#332E8E;" d="M365.713,221.015l-24.08-3.514c-3.945-0.578-7.351-3.058-9.113-6.634l-10.765-21.788    c-3.479-7.047-10.51-11.423-18.348-11.423s-14.869,4.377-18.348,11.423l-10.768,21.791c-1.76,3.574-5.165,6.054-9.107,6.632    l-24.074,3.514c-7.766,1.118-14.097,6.45-16.526,13.917c-2.427,7.462-0.44,15.502,5.185,20.974l17.377,16.932    c2.857,2.803,4.168,6.827,3.51,10.75l-4.105,24.003c-1.332,7.73,1.781,15.398,8.125,20.009c3.588,2.608,7.783,3.932,12.009,3.932    c3.255,0,6.527-0.787,9.55-2.377l21.544-11.328c3.526-1.872,7.736-1.875,11.273,0.008l21.528,11.318    c6.948,3.658,15.21,3.063,21.561-1.552c6.344-4.61,9.458-12.278,8.127-20.003l-4.103-23.997c-0.662-3.934,0.648-7.958,3.495-10.75    l17.386-16.94c5.626-5.476,7.614-13.515,5.187-20.977C379.802,227.465,373.471,222.133,365.713,221.015z M371.229,249.934    c0,0,0,0.003-0.001,0.003L353.83,266.89c-4.799,4.708-6.999,11.472-5.885,18.104l4.107,24.013c0.8,4.648-0.999,9.076-4.812,11.849    c-3.82,2.776-8.597,3.123-12.779,0.917l-21.514-11.309c-5.969-3.177-13.102-3.169-19.063-0.011l-21.531,11.323    c-4.176,2.201-8.953,1.859-12.777-0.92c-3.814-2.773-5.613-7.201-4.811-11.855l4.109-24.022c1.11-6.618-1.092-13.382-5.9-18.101    l-17.389-16.945c-3.385-3.291-4.534-7.939-3.074-12.427c1.46-4.488,5.119-7.57,9.795-8.243l24.085-3.514    c6.659-0.977,12.407-5.164,15.375-11.193l10.765-21.788c2.096-4.244,6.162-6.778,10.875-6.778c4.713,0,8.779,2.534,10.875,6.778    l10.763,21.786c2.971,6.032,8.719,10.219,15.381,11.195l24.091,3.514c4.668,0.673,8.327,3.755,9.787,8.243    C375.763,241.995,374.614,246.643,371.229,249.934z"/><path style="fill:#332E8E;" d="M378.931,388.162H220.642c-2.302,0-4.168,1.867-4.168,4.168c0,2.301,1.865,4.168,4.168,4.168    h158.289c2.302,0,4.168-1.867,4.168-4.168C383.099,390.029,381.234,388.162,378.931,388.162z"/><path style="fill:#332E8E;" d="M378.931,428.513H220.642c-2.302,0-4.168,1.867-4.168,4.168c0,2.301,1.865,4.168,4.168,4.168    h158.289c2.302,0,4.168-1.867,4.168-4.168C383.099,430.38,381.234,428.513,378.931,428.513z"/></g></g><g id="Layer_1"/></svg>