<?xml version="1.0"?><svg xmlns="http://www.w3.org/2000/svg" xmlns:xlink="http://www.w3.org/1999/xlink" version="1.1" viewBox="0 0 512 512" style="enable-background:new 0 0 512 512;" xml:space="preserve"><g id="_x31_8_Mouse"><g><linearGradient id="SVGID_1_" gradientUnits="userSpaceOnUse" x1="284.9663" y1="-205.8512" x2="226.5783" y2="880.1656"><stop offset="0" style="stop-color:#EAE9FE"/><stop offset="0.4236" style="stop-color:#EEEEFE"/><stop offset="0.8967" style="stop-color:#FBFBFF"/><stop offset="1" style="stop-color:#FFFFFF"/></linearGradient><path style="fill:url(#SVGID_1_);" d="M468.836,264.275c-9.501-7.393-20.976-13.763-25.395-24.961    c-6.01-15.229,3.596-31.571,9.261-46.931c17.297-46.899-4.903-102.439-44.732-132.645    c-75.982-57.623-224.302-37.425-245.028,42.219c-8.768,33.692,6.941,72.131-9.131,103.013    c-20.278,38.966-74.073,41.594-108.719,58.921C2.169,285.358-6.419,332.1,24.365,367.686    c11.304,13.068,25.769,22.07,36.136,36.348c15.001,20.659,23.415,43.504,43.486,60.545c28.263,23.996,75.517,29.946,100.538,2.586    c14.089-15.407,18.674-38.106,34.054-52.225c20.245-18.586,52.242-16.086,78.004-6.514c25.762,9.571,49.654,25.026,76.789,29.381    c42.426,6.81,87.917-18.085,105.053-57.489S502.748,290.664,468.836,264.275z"/><path style="fill:#EDEDED;" d="M116.1,173.554c-6.2-6.201-9.595-14.483-9.557-23.32c0.038-8.846,3.511-17.169,9.779-23.437    c1.118-1.117,2.325-2.168,3.593-3.126c0.719-0.543,1.4-1.134,2.027-1.761c7.261-7.264,7.261-19.082,0-26.344l-26.58-26.576    c-2.046-2.047-3.175-4.767-3.175-7.661c0-2.895,1.129-5.617,3.175-7.664c2.046-2.046,4.767-3.173,7.663-3.173    c2.863,0,5.565,1.107,7.606,3.115l32.742,32.249c12.815,12.814,12.715,33.79-0.236,46.742c-1.118,1.117-2.328,2.169-3.595,3.126    c-0.724,0.544-1.408,1.138-2.03,1.762c-3.511,3.51-5.446,8.188-5.446,13.169c0,4.979,1.935,9.657,5.448,13.171l32.113,32.113    l-15.572,15.573L116.1,173.554z"/><path style="fill:#386E93;" d="M309.068,187.405l76.912,76.912c45.111,45.11,45.11,118.249-0.001,163.359l0,0    c-45.111,45.111-118.25,45.111-163.361,0.001l-76.912-76.912c-45.111-45.11-45.11-118.249,0.001-163.359l0,0    C190.818,142.295,263.957,142.295,309.068,187.405z"/><path style="fill:#EDEDED;" d="M309.079,187.397l76.91,76.909c5.237,5.237,9.866,10.895,13.887,16.786    c8.09,11.923,13.745,25.06,16.924,38.619c-13.652-3.086-26.789-8.742-38.714-16.925c-5.891-4.021-11.5-8.603-16.737-13.84    l-76.91-76.909c-5.237-5.237-9.819-10.846-13.84-16.737c-8.134-11.969-13.792-25.109-16.926-38.714    c13.56,3.179,26.651,8.789,38.619,16.924C298.183,177.531,303.842,182.16,309.079,187.397z"/><path style="fill:#EDEDED;" d="M145.707,350.766l76.91,76.909c5.237,5.237,10.895,9.866,16.786,13.887    c11.923,8.089,25.06,13.745,38.619,16.924c-3.086-13.652-8.742-26.789-16.926-38.714c-4.021-5.891-8.603-11.5-13.84-16.737    l-76.91-76.909c-5.237-5.237-10.846-9.819-16.737-13.84c-11.969-8.134-25.109-13.792-38.714-16.925    c3.179,13.559,8.789,26.651,16.924,38.619C135.841,339.871,140.47,345.529,145.707,350.766z"/><path style="fill:#EDEDED;" d="M155.286,178.807l109.709,109.709c5.01,5.01,4.99,13.163,0,18.154c-5.01,5.01-13.144,5.01-18.154,0    L137.133,196.961c2.652-3.281,5.501-6.484,8.566-9.549C148.783,184.328,151.986,181.479,155.286,178.807z"/><path style="fill:#FF5859;" d="M193.704,210.324l37.181,37.181c6.92,6.92,6.92,18.14,0,25.06l0,0c-6.92,6.92-18.14,6.92-25.061,0    l-37.181-37.181c-6.92-6.92-6.92-18.14,0-25.06l0,0C175.564,203.404,186.784,203.404,193.704,210.324z"/><path style="fill:#332E8E;" d="M142.751,353.705l0.008,0.008l0,0l76.911,76.91c1.329,1.329,2.696,2.63,4.097,3.902    c46.834,42.697,119.57,41.668,165.142-3.902c30.127-30.127,40.779-72.442,32.015-111.21c-0.016-0.218-0.017-0.436-0.068-0.652    c-9.991-42.634-24.211-49.054-108.831-134.311c-22.751-22.754-53.177-35.037-84.552-35.037c-0.027,0-0.057,0-0.084,0    c-26.51,0-52.459,8.902-73.317,25.077l-13.612-13.612c-6.102-6.102-5.625-16.409,1.59-21.829    c18.336-13.831,20.096-40.318,4.246-56.164l-32.745-32.25c-5.792-5.7-15.232-5.825-21.137,0.083    c-5.863,5.866-5.868,15.348,0,21.219l26.58,26.576c6.075,6.078,5.653,16.356-1.593,21.833    c-18.382,13.892-20.042,40.359-4.249,56.155l19.482,19.484C95.85,243.544,100.031,310.984,142.751,353.705z M229.374,428.358    c-1.292-1.178-2.566-2.384-3.81-3.629l-76.911-76.91c-12.616-12.616-22.413-28.455-27.877-46.598    c17.961,5.362,33.951,15.182,46.624,27.852l76.911,76.91c12.592,12.592,22.578,28.663,27.88,46.632    C256.747,447.965,242.099,439.916,229.374,428.358z M306.116,190.34c85.767,86.36,94.44,89.076,104.764,123.522    c-18.167-5.371-34.165-15.449-46.583-27.863l-76.911-76.91c-12.65-12.65-22.486-28.642-27.85-46.625    C277.262,167.804,293.162,177.387,306.116,190.34z M233.831,275.512c2.146-2.145,3.779-4.662,4.865-7.4l23.351,23.352    c3.376,3.373,3.379,8.88,0,12.259c-3.272,3.272-8.987,3.272-12.259,0l-23.349-23.349    C229.174,279.287,231.688,277.655,233.831,275.512z M227.938,269.618c-5.283,5.285-13.856,5.308-19.167,0l-37.182-37.18    c-5.283-5.284-5.283-13.883,0.003-19.167c5.294-5.296,13.87-5.298,19.165,0l37.182,37.183    C233.231,255.742,233.238,264.321,227.938,269.618z M165.695,207.378c-2.176,2.176-3.79,4.702-4.856,7.397l-18.042-18.042    c4.298-4.995,7.177-7.889,12.261-12.261l18.039,18.04C170.359,203.598,167.841,205.231,165.695,207.378z M122.425,126.998    c11.284-8.515,12.108-24.733,2.464-34.379l-26.58-26.576c-2.613-2.616-2.6-6.829,0-9.432c2.502-2.506,6.87-2.521,9.396-0.035    l32.721,32.226c12.159,12.159,10.99,32.717-3.386,43.588c-11.24,8.456-12.186,24.668-2.472,34.383l13.073,13.073    c-3.611,3.233-6.521,6.172-9.662,9.695l-18.932-18.933C106.988,158.542,107.918,137.985,122.425,126.998z M137.553,203.276    l21.87,21.87c0.503,4.819,2.588,9.502,6.273,13.186l37.182,37.18c3.594,3.594,8.219,5.78,13.205,6.291l27.814,27.813    c6.631,6.631,17.389,6.656,24.046,0.001c6.616-6.611,6.656-17.396,0-24.049l-27.821-27.821c-0.514-4.982-2.698-9.601-6.289-13.189    l-37.182-37.182c-3.588-3.589-8.206-5.774-13.188-6.289l-21.864-21.865c18.96-13.88,42.14-21.476,65.795-21.476    c0.027,0,0.052,0,0.079,0c7.752,0,15.377,0.807,22.797,2.346c5.409,21.314,16.444,40.112,31.224,54.888l76.911,76.91    c14.614,14.617,33.387,25.838,54.8,31.212c7.411,35.562-2.634,74.071-30.187,101.625c-27.192,27.189-65.218,37.803-101.575,30.255    c-5.289-21.149-16.358-40.02-31.237-54.896l-76.911-76.91c-14.915-14.919-33.772-25.871-54.926-31.235    C112.037,261.821,118.269,229.5,137.553,203.276z"/></g></g><g id="Layer_1"/></svg>