<?xml version="1.0"?><svg xmlns="http://www.w3.org/2000/svg" xmlns:xlink="http://www.w3.org/1999/xlink" version="1.1" viewBox="0 0 512 512" style="enable-background:new 0 0 512 512;" xml:space="preserve"><g id="_x34_5_Battery"><g><linearGradient id="SVGID_1_" gradientUnits="userSpaceOnUse" x1="284.9663" y1="-205.8512" x2="226.5783" y2="880.1656"><stop offset="0" style="stop-color:#EAE9FE"/><stop offset="0.4236" style="stop-color:#EEEEFE"/><stop offset="0.8967" style="stop-color:#FBFBFF"/><stop offset="1" style="stop-color:#FFFFFF"/></linearGradient><path style="fill:url(#SVGID_1_);" d="M468.836,264.275c-9.501-7.393-20.976-13.763-25.395-24.961    c-6.01-15.229,3.596-31.571,9.261-46.931c17.297-46.899-4.903-102.439-44.732-132.645    c-75.982-57.623-224.302-37.425-245.028,42.219c-8.768,33.692,6.941,72.131-9.131,103.013    c-20.278,38.966-74.073,41.594-108.719,58.921C2.169,285.358-6.419,332.1,24.365,367.686    c11.304,13.068,25.769,22.07,36.136,36.348c15.001,20.659,23.415,43.504,43.486,60.545c28.263,23.996,75.517,29.946,100.538,2.586    c14.089-15.407,18.674-38.106,34.054-52.225c20.245-18.586,52.242-16.086,78.004-6.514c25.762,9.571,49.654,25.026,76.789,29.381    c42.426,6.81,87.917-18.085,105.053-57.489S502.748,290.664,468.836,264.275z"/><path style="fill:#EDEDED;" d="M385.029,138.961v275.295c0,23.097-18.724,41.82-41.82,41.82H168.791    c-23.097,0-41.82-18.724-41.82-41.82V138.961c0-23.097,18.724-41.82,41.82-41.82h174.418    C366.306,97.141,385.029,115.864,385.029,138.961z"/><path style="fill:#5EDB6B;" d="M350.146,258.294v44.901c0,6.906-5.598,12.504-12.504,12.504H174.356    c-6.906,0-12.504-5.598-12.504-12.504v-44.901c0-6.906,5.598-12.504,12.504-12.504h163.286    C344.548,245.79,350.146,251.388,350.146,258.294z"/><path style="fill:#5EDB6B;" d="M350.146,153.535v44.901c0,6.906-5.598,12.504-12.504,12.504H174.356    c-6.906,0-12.504-5.598-12.504-12.504v-44.901c0-6.906,5.598-12.504,12.504-12.504h163.286    C344.548,141.031,350.146,146.629,350.146,153.535z"/><path style="fill:#5EDB6B;" d="M174.356,350.549h163.286c6.906,0,12.504,5.598,12.504,12.504v44.233    c0,7.668-6.203,13.94-13.94,13.94H175.792c-7.736,0-13.94-6.272-13.94-13.94v-44.233    C161.852,356.147,167.45,350.549,174.356,350.549z"/><path style="fill:#F9BB40;" d="M306.304,69.864v27.254h-100.61V69.864c0-7.736,6.274-13.94,13.94-13.94h72.73    C300.032,55.924,306.304,62.128,306.304,69.864z"/><path style="fill:#332E8E;" d="M343.209,92.972h-32.737V69.865c0-9.985-8.122-18.109-18.108-18.109h-72.729    c-9.985,0-18.108,8.124-18.108,18.109v23.107h-32.736c-25.358,0-45.988,20.63-45.988,45.989v275.295    c0,25.359,20.63,45.989,45.988,45.989h174.418c25.358,0,45.988-20.63,45.988-45.989V138.961    C389.197,113.602,368.567,92.972,343.209,92.972z M209.862,69.865c0-5.389,4.383-9.774,9.772-9.774h72.729    c5.389,0,9.772,4.385,9.772,9.774V92.95h-92.274V69.865z M380.861,414.255c0,20.763-16.891,37.654-37.652,37.654H168.791    c-20.761,0-37.652-16.891-37.652-37.654V138.961c0-20.763,16.891-37.654,37.652-37.654h174.418    c20.761,0,37.652,16.891,37.652,37.654V414.255z"/><path style="fill:#332E8E;" d="M337.642,241.622H174.356c-9.193,0-16.672,7.478-16.672,16.671v44.901    c0,9.193,7.479,16.671,16.672,16.671h163.286c9.193,0,16.671-7.478,16.671-16.671v-44.901    C354.313,249.1,346.835,241.622,337.642,241.622z M345.978,303.194c0,4.596-3.739,8.336-8.336,8.336H174.356    c-4.596,0-8.337-3.739-8.337-8.336v-44.901c0-4.596,3.74-8.336,8.337-8.336h163.286c4.596,0,8.336,3.739,8.336,8.336V303.194z"/><path style="fill:#332E8E;" d="M337.642,136.863H174.356c-9.193,0-16.672,7.478-16.672,16.671v44.901    c0,9.193,7.479,16.671,16.672,16.671h163.286c9.193,0,16.671-7.478,16.671-16.671v-44.901    C354.313,144.342,346.835,136.863,337.642,136.863z M345.978,198.436c0,4.596-3.739,8.336-8.336,8.336H174.356    c-4.596,0-8.337-3.739-8.337-8.336v-44.901c0-4.596,3.74-8.336,8.337-8.336h163.286c4.596,0,8.336,3.739,8.336,8.336V198.436z"/><path style="fill:#332E8E;" d="M337.642,346.38H174.356c-9.193,0-16.672,7.478-16.672,16.671v44.234    c0,9.985,8.123,18.109,18.108,18.109h160.414c9.985,0,18.108-8.124,18.108-18.109v-44.234    C354.313,353.858,346.835,346.38,337.642,346.38z M345.978,407.285c0,5.389-4.383,9.774-9.772,9.774H175.792    c-5.389,0-9.772-4.385-9.772-9.774v-44.234c0-4.596,3.74-8.336,8.337-8.336h163.286c4.596,0,8.336,3.739,8.336,8.336V407.285z"/></g></g><g id="Layer_1"/></svg>