<?xml version="1.0"?><svg xmlns="http://www.w3.org/2000/svg" xmlns:xlink="http://www.w3.org/1999/xlink" version="1.1" viewBox="0 0 512 512" style="enable-background:new 0 0 512 512;" xml:space="preserve"><g id="_x34_9_Cctv_Camera"><g><linearGradient id="SVGID_1_" gradientUnits="userSpaceOnUse" x1="284.9663" y1="-205.8512" x2="226.5783" y2="880.1656"><stop offset="0" style="stop-color:#EAE9FE"/><stop offset="0.4236" style="stop-color:#EEEEFE"/><stop offset="0.8967" style="stop-color:#FBFBFF"/><stop offset="1" style="stop-color:#FFFFFF"/></linearGradient><path style="fill:url(#SVGID_1_);" d="M468.836,264.275c-9.501-7.393-20.976-13.763-25.395-24.961    c-6.01-15.229,3.596-31.571,9.261-46.931c17.297-46.899-4.903-102.439-44.732-132.645    c-75.982-57.623-224.302-37.425-245.028,42.219c-8.768,33.692,6.941,72.131-9.131,103.013    c-20.278,38.966-74.073,41.594-108.719,58.921C2.169,285.358-6.419,332.1,24.365,367.686    c11.304,13.068,25.769,22.07,36.136,36.348c15.001,20.659,23.415,43.504,43.486,60.545c28.263,23.996,75.517,29.946,100.538,2.586    c14.089-15.407,18.674-38.106,34.054-52.225c20.245-18.586,52.242-16.086,78.004-6.514c25.762,9.571,49.654,25.026,76.789,29.381    c42.426,6.81,87.917-18.085,105.053-57.489S502.748,290.664,468.836,264.275z"/><path style="fill:#386E93;" d="M400.875,407.393v30.274c0,10.123-8.188,18.403-18.403,18.403H129.429    c-10.12,0-18.403-8.28-18.403-18.403v-30.274c0-18.403,10.952-34.964,27.789-42.234l117.136-50.609l117.23,50.609    C390.018,372.429,400.875,388.99,400.875,407.393z"/><path style="fill:#386E93;" d="M422.489,222.469c0,91.983-74.556,166.539-166.539,166.539c-91.883,0-166.44-74.556-166.44-166.539    S164.067,55.93,255.95,55.93C347.933,55.93,422.489,130.486,422.489,222.469z"/><path style="fill:#EDEDED;" d="M255.952,318.966c-53.154,0-96.398-43.288-96.398-96.496c0-53.21,43.245-96.498,96.398-96.498    c53.206,0,96.495,43.288,96.495,96.498C352.447,275.678,309.158,318.966,255.952,318.966z"/><path style="fill:#2769FD;" d="M255.967,287.609c-35.881,0-65.073-29.222-65.073-65.139c0-35.919,29.192-65.141,65.073-65.141    c35.917,0,65.138,29.222,65.138,65.141C321.106,258.387,291.884,287.609,255.967,287.609z"/><path style="fill:#EDEDED;" d="M255.985,253.065c-16.853,0-30.564-13.725-30.564-30.596c0-16.871,13.711-30.596,30.564-30.596    c16.87,0,30.595,13.725,30.595,30.596C286.58,239.34,272.855,253.065,255.985,253.065z"/><path style="fill:#FF5859;" d="M159.547,149.065c-7.609,0-13.799-6.197-13.799-13.813c0-7.617,6.19-13.814,13.799-13.814    c7.616,0,13.813,6.197,13.813,13.814C173.36,142.869,167.163,149.065,159.547,149.065z"/><path style="fill:#332E8E;" d="M426.658,222.468c0-94.127-76.58-170.707-170.707-170.707c-94.073,0-170.607,76.58-170.607,170.707    c0,53.967,25.186,102.132,64.384,133.436l-12.566,5.429c-18.408,7.948-30.303,26.027-30.303,46.06v30.273    c0,12.446,10.124,22.57,22.57,22.57h253.045c12.446,0,22.57-10.124,22.57-22.57v-30.273c0-20.057-11.857-38.137-30.211-46.06    l-12.589-5.435C401.459,324.594,426.658,276.432,426.658,222.468z M371.527,368.985c15.295,6.604,25.18,21.68,25.18,38.408v30.273    c0,7.85-6.385,14.234-14.234,14.234H129.428c-7.85,0-14.234-6.385-14.234-14.234v-30.273c0-16.704,9.92-31.779,25.272-38.408    l16.923-7.311c27.859,19.806,61.86,31.501,98.561,31.501c36.726,0,70.75-11.697,98.627-31.507L371.527,368.985z M255.95,384.84    c-89.477,0-162.271-72.841-162.271-162.372S166.474,60.096,255.95,60.096c89.531,0,162.372,72.841,162.372,162.372    S345.481,384.84,255.95,384.84z"/><path style="fill:#332E8E;" d="M255.95,121.804c-55.451,0-100.563,45.159-100.563,100.667    c0,55.505,45.113,100.664,100.563,100.664c55.505,0,100.664-45.159,100.664-100.664    C356.614,166.963,311.455,121.804,255.95,121.804z M255.95,314.799c-50.854,0-92.228-41.417-92.228-92.328    s41.374-92.331,92.228-92.331c50.911,0,92.328,41.42,92.328,92.331S306.862,314.799,255.95,314.799z"/><path style="fill:#332E8E;" d="M255.967,153.16c-38.18,0-69.24,31.093-69.24,69.311c0,38.215,31.06,69.305,69.24,69.305    c38.215,0,69.308-31.09,69.308-69.305C325.275,184.253,294.182,153.16,255.967,153.16z M255.967,283.44    c-33.584,0-60.905-27.351-60.905-60.97c0-33.622,27.321-60.975,60.905-60.975c33.622,0,60.972,27.354,60.972,60.975    C316.939,256.09,289.588,283.44,255.967,283.44z"/><path style="fill:#332E8E;" d="M255.986,187.704c-19.151,0-34.734,15.594-34.734,34.764s15.583,34.764,34.734,34.764    c19.167,0,34.761-15.594,34.761-34.764S275.153,187.704,255.986,187.704z M255.986,248.896c-14.557,0-26.399-11.855-26.399-26.428    c0-14.574,11.841-26.428,26.399-26.428c14.571,0,26.426,11.855,26.426,26.428C282.411,237.042,270.557,248.896,255.986,248.896z"/><path style="fill:#332E8E;" d="M177.528,135.252c0-9.915-8.067-17.982-17.982-17.982c-9.907,0-17.968,8.067-17.968,17.982    s8.061,17.982,17.968,17.982C169.461,153.233,177.528,145.166,177.528,135.252z M149.914,135.252c0-5.318,4.322-9.646,9.633-9.646    c5.318,0,9.646,4.328,9.646,9.646c0,5.318-4.328,9.646-9.646,9.646C154.237,144.898,149.914,140.57,149.914,135.252z"/></g></g><g id="Layer_1"/></svg>