<?xml version="1.0"?><svg xmlns="http://www.w3.org/2000/svg" xmlns:xlink="http://www.w3.org/1999/xlink" version="1.1" viewBox="0 0 512 512" style="enable-background:new 0 0 512 512;" xml:space="preserve"><g id="_x31_6_Keyboard"><g><linearGradient id="SVGID_1_" gradientUnits="userSpaceOnUse" x1="284.9663" y1="-205.8512" x2="226.5783" y2="880.1656"><stop offset="0" style="stop-color:#EAE9FE"/><stop offset="0.4236" style="stop-color:#EEEEFE"/><stop offset="0.8967" style="stop-color:#FBFBFF"/><stop offset="1" style="stop-color:#FFFFFF"/></linearGradient><path style="fill:url(#SVGID_1_);" d="M468.836,264.275c-9.501-7.393-20.976-13.763-25.395-24.961    c-6.01-15.229,3.596-31.571,9.261-46.931c17.297-46.899-4.903-102.439-44.732-132.645    c-75.982-57.623-224.302-37.425-245.028,42.219c-8.768,33.692,6.941,72.131-9.131,103.013    c-20.278,38.966-74.073,41.594-108.719,58.921C2.169,285.358-6.419,332.1,24.365,367.686    c11.304,13.068,25.769,22.07,36.136,36.348c15.001,20.659,23.415,43.504,43.486,60.545c28.263,23.996,75.517,29.946,100.538,2.586    c14.089-15.407,18.674-38.106,34.054-52.225c20.245-18.586,52.242-16.086,78.004-6.514c25.762,9.571,49.654,25.026,76.789,29.381    c42.426,6.81,87.917-18.085,105.053-57.489S502.748,290.664,468.836,264.275z"/><path style="fill:#F9BB40;" d="M251.169,260.828c-5.357,0-9.698-4.341-9.698-9.698v-54.959c0-24.598,20.011-44.608,44.608-44.608    c13.902,0,25.213-11.311,25.213-25.216V73.34c0-5.357,4.341-9.698,9.698-9.698c5.357,0,9.698,4.341,9.698,9.698v53.005    c0,24.598-20.011,44.612-44.608,44.612c-13.902,0-25.213,11.311-25.213,25.213v54.959    C260.867,256.487,256.526,260.828,251.169,260.828z"/><path style="fill:#EDEDED;" d="M462.882,267.335v155.162c0,14.282-11.578,25.86-25.86,25.86H74.978    c-14.282,0-25.86-11.578-25.86-25.86V267.335c0-14.282,11.578-25.86,25.86-25.86h362.044    C451.304,241.475,462.882,253.053,462.882,267.335z"/><path style="fill:#386E93;" d="M118.076,284.575v17.24c0,4.761-3.859,8.62-8.62,8.62h-17.24c-4.761,0-8.62-3.859-8.62-8.62v-17.24    c0-4.761,3.859-8.62,8.62-8.62h17.24C114.217,275.955,118.076,279.815,118.076,284.575z"/><path style="fill:#386E93;" d="M169.797,284.575v17.24c0,4.761-3.859,8.62-8.62,8.62h-17.24c-4.761,0-8.62-3.859-8.62-8.62v-17.24    c0-4.761,3.859-8.62,8.62-8.62h17.24C165.937,275.955,169.797,279.815,169.797,284.575z"/><path style="fill:#386E93;" d="M221.517,284.575v17.24c0,4.761-3.859,8.62-8.62,8.62h-17.24c-4.761,0-8.62-3.859-8.62-8.62v-17.24    c0-4.761,3.859-8.62,8.62-8.62h17.24C217.658,275.955,221.517,279.815,221.517,284.575z"/><path style="fill:#386E93;" d="M273.238,284.575v17.24c0,4.761-3.859,8.62-8.62,8.62h-17.24c-4.761,0-8.62-3.859-8.62-8.62v-17.24    c0-4.761,3.859-8.62,8.62-8.62h17.24C269.379,275.955,273.238,279.815,273.238,284.575z"/><path style="fill:#386E93;" d="M324.959,284.575v17.24c0,4.761-3.859,8.62-8.62,8.62h-17.24c-4.761,0-8.62-3.859-8.62-8.62v-17.24    c0-4.761,3.859-8.62,8.62-8.62h17.24C321.099,275.955,324.959,279.815,324.959,284.575z"/><path style="fill:#386E93;" d="M376.679,284.575v17.24c0,4.761-3.859,8.62-8.62,8.62h-17.24c-4.761,0-8.62-3.859-8.62-8.62v-17.24    c0-4.761,3.859-8.62,8.62-8.62h17.24C372.82,275.955,376.679,279.815,376.679,284.575z"/><path style="fill:#386E93;" d="M428.4,284.575v17.24c0,4.761-3.859,8.62-8.62,8.62h-17.24c-4.761,0-8.62-3.859-8.62-8.62v-17.24    c0-4.761,3.859-8.62,8.62-8.62h17.24C424.54,275.955,428.4,279.815,428.4,284.575z"/><path style="fill:#386E93;" d="M221.517,336.296v17.24c0,4.761-3.859,8.62-8.62,8.62h-17.24c-4.761,0-8.62-3.859-8.62-8.62v-17.24    c0-4.761,3.859-8.62,8.62-8.62h17.24C217.658,327.676,221.517,331.535,221.517,336.296z"/><path style="fill:#386E93;" d="M169.797,336.296v17.24c0,4.761-3.859,8.62-8.62,8.62h-17.24c-4.761,0-8.62-3.859-8.62-8.62v-17.24    c0-4.761,3.859-8.62,8.62-8.62h17.24C165.937,327.676,169.797,331.535,169.797,336.296z"/><path style="fill:#386E93;" d="M118.076,336.296v17.24c0,4.761-3.859,8.62-8.62,8.62h-17.24c-4.761,0-8.62-3.859-8.62-8.62v-17.24    c0-4.761,3.859-8.62,8.62-8.62h17.24C114.217,327.676,118.076,331.535,118.076,336.296z"/><path style="fill:#386E93;" d="M273.238,336.296v17.24c0,4.761-3.859,8.62-8.62,8.62h-17.24c-4.761,0-8.62-3.859-8.62-8.62v-17.24    c0-4.761,3.859-8.62,8.62-8.62h17.24C269.379,327.676,273.238,331.535,273.238,336.296z"/><path style="fill:#386E93;" d="M324.959,336.296v17.24c0,4.761-3.859,8.62-8.62,8.62h-17.24c-4.761,0-8.62-3.859-8.62-8.62v-17.24    c0-4.761,3.859-8.62,8.62-8.62h17.24C321.099,327.676,324.959,331.535,324.959,336.296z"/><path style="fill:#386E93;" d="M428.404,336.32v17.24c0,4.739-3.879,8.62-8.62,8.62h-68.961c-4.741,0-8.62-3.881-8.62-8.62v-17.24    c0-4.828,3.879-8.62,8.62-8.62h68.961C424.526,327.7,428.404,331.493,428.404,336.32z"/><path style="fill:#386E93;" d="M118.078,388.017v17.24c0,4.761-3.859,8.62-8.62,8.62h-17.24c-4.761,0-8.62-3.859-8.62-8.62v-17.24    c0-4.761,3.859-8.62,8.62-8.62h17.24C114.219,379.396,118.078,383.256,118.078,388.017z"/><path style="fill:#386E93;" d="M169.799,388.017v17.24c0,4.761-3.859,8.62-8.62,8.62h-17.24c-4.761,0-8.62-3.859-8.62-8.62v-17.24    c0-4.761,3.859-8.62,8.62-8.62h17.24C165.94,379.396,169.799,383.256,169.799,388.017z"/><path style="fill:#386E93;" d="M324.959,388.017v17.24c0,4.741-3.879,8.62-8.62,8.62H195.657c-4.741,0-8.62-3.879-8.62-8.62    v-17.24c0-4.741,3.879-8.62,8.62-8.62h120.681C321.079,379.396,324.959,383.276,324.959,388.017z"/><path style="fill:#386E93;" d="M376.679,388.017v17.24c0,4.761-3.859,8.62-8.62,8.62h-17.24c-4.761,0-8.62-3.859-8.62-8.62v-17.24    c0-4.761,3.859-8.62,8.62-8.62h17.24C372.82,379.396,376.679,383.256,376.679,388.017z"/><path style="fill:#386E93;" d="M428.4,388.017v17.24c0,4.761-3.859,8.62-8.62,8.62h-17.24c-4.761,0-8.62-3.859-8.62-8.62v-17.24    c0-4.761,3.859-8.62,8.62-8.62h17.24C424.54,379.396,428.4,383.256,428.4,388.017z"/><path style="fill:#332E8E;" d="M286.08,175.125c26.895,0,48.776-21.882,48.776-48.779V73.34c0-7.645-6.219-13.865-13.865-13.865    c-7.646,0-13.865,6.22-13.865,13.865v53.006c0,11.605-9.44,21.048-21.045,21.048c-26.895,0-48.776,21.881-48.776,48.776v41.138    H74.979c-16.557,0-30.029,13.471-30.029,30.028v155.162c0,16.557,13.472,30.028,30.029,30.028h362.044    c16.557,0,30.026-13.471,30.026-30.028V267.335c0-16.557-13.469-30.028-30.026-30.028H265.035V196.17    C265.035,184.566,274.475,175.125,286.08,175.125z M458.714,267.335v155.162c0,11.961-9.73,21.692-21.691,21.692H74.979    c-11.961,0-21.694-9.732-21.694-21.692V267.335c0-11.961,9.733-21.692,21.694-21.692h362.044    C448.983,245.643,458.714,255.375,458.714,267.335z M245.64,237.308V196.17c0-22.299,18.142-40.44,40.44-40.44    c16.202,0,29.381-13.182,29.381-29.383V73.34c0-3.05,2.48-5.53,5.53-5.53c3.05,0,5.53,2.48,5.53,5.53v53.006    c0,22.3-18.142,40.443-40.44,40.443c-16.202,0-29.381,13.18-29.381,29.381v41.138H245.64z"/><path style="fill:#332E8E;" d="M92.217,314.604h17.241c7.052,0,12.788-5.736,12.788-12.788v-17.241    c0-7.051-5.736-12.787-12.788-12.787H92.217c-7.049,0-12.785,5.736-12.785,12.787v17.241    C79.431,308.868,85.167,314.604,92.217,314.604z M87.767,284.575c0-2.454,1.997-4.451,4.45-4.451h17.241    c2.456,0,4.453,1.997,4.453,4.451v17.241c0,2.456-1.997,4.453-4.453,4.453H92.217c-2.453,0-4.45-1.997-4.45-4.453V284.575z"/><path style="fill:#332E8E;" d="M143.939,314.604h17.241c7.049,0,12.785-5.736,12.785-12.788v-17.241    c0-7.051-5.736-12.787-12.785-12.787h-17.241c-7.052,0-12.788,5.736-12.788,12.787v17.241    C131.151,308.868,136.887,314.604,143.939,314.604z M139.487,284.575c0-2.454,1.997-4.451,4.453-4.451h17.241    c2.453,0,4.45,1.997,4.45,4.451v17.241c0,2.456-1.997,4.453-4.45,4.453h-17.241c-2.456,0-4.453-1.997-4.453-4.453V284.575z"/><path style="fill:#332E8E;" d="M195.659,314.604H212.9c7.052,0,12.788-5.736,12.788-12.788v-17.241    c0-7.051-5.736-12.787-12.788-12.787h-17.241c-7.052,0-12.788,5.736-12.788,12.787v17.241    C182.871,308.868,188.607,314.604,195.659,314.604z M191.206,284.575c0-2.454,1.997-4.451,4.453-4.451H212.9    c2.456,0,4.453,1.997,4.453,4.451v17.241c0,2.456-1.997,4.453-4.453,4.453h-17.241c-2.456,0-4.453-1.997-4.453-4.453V284.575z"/><path style="fill:#332E8E;" d="M247.379,314.604h17.241c7.052,0,12.788-5.736,12.788-12.788v-17.241    c0-7.051-5.736-12.787-12.788-12.787h-17.241c-7.052,0-12.788,5.736-12.788,12.787v17.241    C234.591,308.868,240.327,314.604,247.379,314.604z M242.926,284.575c0-2.454,1.997-4.451,4.453-4.451h17.241    c2.456,0,4.453,1.997,4.453,4.451v17.241c0,2.456-1.997,4.453-4.453,4.453h-17.241c-2.456,0-4.453-1.997-4.453-4.453V284.575z"/><path style="fill:#332E8E;" d="M299.101,314.604h17.238c7.052,0,12.788-5.736,12.788-12.788v-17.241    c0-7.051-5.736-12.787-12.788-12.787h-17.238c-7.052,0-12.788,5.736-12.788,12.787v17.241    C286.313,308.868,292.049,314.604,299.101,314.604z M294.649,284.575c0-2.454,1.997-4.451,4.453-4.451h17.238    c2.456,0,4.453,1.997,4.453,4.451v17.241c0,2.456-1.997,4.453-4.453,4.453h-17.238c-2.456,0-4.453-1.997-4.453-4.453V284.575z"/><path style="fill:#332E8E;" d="M350.821,314.604h17.241c7.052,0,12.788-5.736,12.788-12.788v-17.241    c0-7.051-5.736-12.787-12.788-12.787h-17.241c-7.052,0-12.788,5.736-12.788,12.787v17.241    C338.033,308.868,343.769,314.604,350.821,314.604z M346.369,284.575c0-2.454,1.997-4.451,4.453-4.451h17.241    c2.456,0,4.453,1.997,4.453,4.451v17.241c0,2.456-1.997,4.453-4.453,4.453h-17.241c-2.456,0-4.453-1.997-4.453-4.453V284.575z"/><path style="fill:#332E8E;" d="M402.541,314.604h17.241c7.052,0,12.788-5.736,12.788-12.788v-17.241    c0-7.051-5.736-12.787-12.788-12.787h-17.241c-7.052,0-12.788,5.736-12.788,12.787v17.241    C389.753,308.868,395.489,314.604,402.541,314.604z M398.088,284.575c0-2.454,1.997-4.451,4.453-4.451h17.241    c2.456,0,4.453,1.997,4.453,4.451v17.241c0,2.456-1.997,4.453-4.453,4.453h-17.241c-2.456,0-4.453-1.997-4.453-4.453V284.575z"/><path style="fill:#332E8E;" d="M195.659,366.324H212.9c7.052,0,12.788-5.736,12.788-12.787v-17.241    c0-7.052-5.736-12.788-12.788-12.788h-17.241c-7.052,0-12.788,5.736-12.788,12.788v17.241    C182.871,360.587,188.607,366.324,195.659,366.324z M191.206,336.296c0-2.456,1.997-4.453,4.453-4.453H212.9    c2.456,0,4.453,1.997,4.453,4.453v17.241c0,2.454-1.997,4.451-4.453,4.451h-17.241c-2.456,0-4.453-1.997-4.453-4.451V336.296z"/><path style="fill:#332E8E;" d="M143.939,366.324h17.241c7.049,0,12.785-5.736,12.785-12.787v-17.241    c0-7.052-5.736-12.788-12.785-12.788h-17.241c-7.052,0-12.788,5.736-12.788,12.788v17.241    C131.151,360.587,136.887,366.324,143.939,366.324z M139.487,336.296c0-2.456,1.997-4.453,4.453-4.453h17.241    c2.453,0,4.45,1.997,4.45,4.453v17.241c0,2.454-1.997,4.451-4.45,4.451h-17.241c-2.456,0-4.453-1.997-4.453-4.451V336.296z"/><path style="fill:#332E8E;" d="M92.217,366.324h17.241c7.052,0,12.788-5.736,12.788-12.787v-17.241    c0-7.052-5.736-12.788-12.788-12.788H92.217c-7.049,0-12.785,5.736-12.785,12.788v17.241    C79.431,360.587,85.167,366.324,92.217,366.324z M87.767,336.296c0-2.456,1.997-4.453,4.45-4.453h17.241    c2.456,0,4.453,1.997,4.453,4.453v17.241c0,2.454-1.997,4.451-4.453,4.451H92.217c-2.453,0-4.45-1.997-4.45-4.451V336.296z"/><path style="fill:#332E8E;" d="M247.379,366.324h17.241c7.052,0,12.788-5.736,12.788-12.787v-17.241    c0-7.052-5.736-12.788-12.788-12.788h-17.241c-7.052,0-12.788,5.736-12.788,12.788v17.241    C234.591,360.587,240.327,366.324,247.379,366.324z M242.926,336.296c0-2.456,1.997-4.453,4.453-4.453h17.241    c2.456,0,4.453,1.997,4.453,4.453v17.241c0,2.454-1.997,4.451-4.453,4.451h-17.241c-2.456,0-4.453-1.997-4.453-4.451V336.296z"/><path style="fill:#332E8E;" d="M299.101,366.324h17.238c7.052,0,12.788-5.736,12.788-12.787v-17.241    c0-7.052-5.736-12.788-12.788-12.788h-17.238c-7.052,0-12.788,5.736-12.788,12.788v17.241    C286.313,360.587,292.049,366.324,299.101,366.324z M294.649,336.296c0-2.456,1.997-4.453,4.453-4.453h17.238    c2.456,0,4.453,1.997,4.453,4.453v17.241c0,2.454-1.997,4.451-4.453,4.451h-17.238c-2.456,0-4.453-1.997-4.453-4.451V336.296z"/><path style="fill:#332E8E;" d="M419.787,323.532h-68.961c-7.052,0-12.788,5.736-12.788,12.788v17.241    c0,7.051,5.736,12.787,12.788,12.787h68.961c7.052,0,12.788-5.736,12.788-12.787V336.32    C432.576,329.268,426.839,323.532,419.787,323.532z M424.24,353.561c0,2.454-1.997,4.451-4.453,4.451h-68.961    c-2.456,0-4.453-1.997-4.453-4.451V336.32c0-2.496,1.956-4.453,4.453-4.453h68.961c2.496,0,4.453,1.956,4.453,4.453V353.561z"/><path style="fill:#332E8E;" d="M92.217,418.045h17.241c7.052,0,12.788-5.736,12.788-12.788v-17.239    c0-7.052-5.736-12.788-12.788-12.788H92.217c-7.049,0-12.785,5.736-12.785,12.788v17.239    C79.431,412.309,85.167,418.045,92.217,418.045z M87.767,388.017c0-2.456,1.997-4.453,4.45-4.453h17.241    c2.456,0,4.453,1.997,4.453,4.453v17.239c0,2.456-1.997,4.453-4.453,4.453H92.217c-2.453,0-4.45-1.997-4.45-4.453V388.017z"/><path style="fill:#332E8E;" d="M143.939,418.045h17.241c7.049,0,12.785-5.736,12.785-12.788v-17.239    c0-7.052-5.736-12.788-12.785-12.788h-17.241c-7.052,0-12.788,5.736-12.788,12.788v17.239    C131.151,412.309,136.887,418.045,143.939,418.045z M139.487,388.017c0-2.456,1.997-4.453,4.453-4.453h17.241    c2.453,0,4.45,1.997,4.45,4.453v17.239c0,2.456-1.997,4.453-4.45,4.453h-17.241c-2.456,0-4.453-1.997-4.453-4.453V388.017z"/><path style="fill:#332E8E;" d="M195.659,418.045h120.68c7.052,0,12.788-5.736,12.788-12.788v-17.239    c0-7.052-5.736-12.788-12.788-12.788h-120.68c-7.052,0-12.788,5.736-12.788,12.788v17.239    C182.871,412.309,188.607,418.045,195.659,418.045z M191.206,388.017c0-2.456,1.997-4.453,4.453-4.453h120.68    c2.456,0,4.453,1.997,4.453,4.453v17.239c0,2.456-1.997,4.453-4.453,4.453h-120.68c-2.456,0-4.453-1.997-4.453-4.453V388.017z"/><path style="fill:#332E8E;" d="M350.821,418.045h17.241c7.052,0,12.788-5.736,12.788-12.788v-17.239    c0-7.052-5.736-12.788-12.788-12.788h-17.241c-7.052,0-12.788,5.736-12.788,12.788v17.239    C338.033,412.309,343.769,418.045,350.821,418.045z M346.369,388.017c0-2.456,1.997-4.453,4.453-4.453h17.241    c2.456,0,4.453,1.997,4.453,4.453v17.239c0,2.456-1.997,4.453-4.453,4.453h-17.241c-2.456,0-4.453-1.997-4.453-4.453V388.017z"/><path style="fill:#332E8E;" d="M419.782,375.229h-17.241c-7.052,0-12.788,5.736-12.788,12.788v17.239    c0,7.052,5.736,12.788,12.788,12.788h17.241c7.052,0,12.788-5.736,12.788-12.788v-17.239    C432.57,380.965,426.834,375.229,419.782,375.229z M424.235,405.257c0,2.456-1.997,4.453-4.453,4.453h-17.241    c-2.456,0-4.453-1.997-4.453-4.453v-17.239c0-2.456,1.997-4.453,4.453-4.453h17.241c2.456,0,4.453,1.997,4.453,4.453V405.257z"/></g></g><g id="Layer_1"/></svg>