<?xml version="1.0"?><svg xmlns="http://www.w3.org/2000/svg" xmlns:xlink="http://www.w3.org/1999/xlink" version="1.1" viewBox="0 0 512 512" style="enable-background:new 0 0 512 512;" xml:space="preserve"><g id="_x33_6_Like"><g><linearGradient id="SVGID_1_" gradientUnits="userSpaceOnUse" x1="284.9663" y1="-205.8513" x2="226.5783" y2="880.1656"><stop offset="0" style="stop-color:#EAE9FE"/><stop offset="0.4236" style="stop-color:#EEEEFE"/><stop offset="0.8967" style="stop-color:#FBFBFF"/><stop offset="1" style="stop-color:#FFFFFF"/></linearGradient><path style="fill:url(#SVGID_1_);" d="M468.836,264.275c-9.502-7.393-20.977-13.763-25.396-24.961    c-6.009-15.229,3.597-31.571,9.261-46.931c17.296-46.9-4.903-102.439-44.732-132.645    c-75.982-57.623-224.302-37.425-245.028,42.219c-8.768,33.692,6.94,72.131-9.131,103.013    c-20.278,38.966-74.073,41.594-108.719,58.921C2.169,285.358-6.419,332.1,24.365,367.686    c11.304,13.068,25.769,22.07,36.136,36.348c15.001,20.659,23.415,43.504,43.486,60.545c28.263,23.996,75.517,29.946,100.538,2.586    c14.09-15.407,18.675-38.106,34.054-52.225c20.245-18.586,52.242-16.086,78.004-6.514c25.762,9.571,49.655,25.026,76.789,29.381    c42.426,6.81,87.917-18.085,105.053-57.489C515.561,340.912,502.748,290.664,468.836,264.275z"/><g><path style="fill:#FF5859;" d="M278.797,124.205v63.977c0,4.967,4.063,9.03,9.03,9.03h56.934l21.672,18.15     c1.445,1.219,3.703,0.181,3.703-1.715v-16.435h5.734c4.966,0,9.03-4.063,9.03-9.03v-63.977c0-4.967-4.064-9.03-9.03-9.03h-88.043     C282.86,115.175,278.797,119.238,278.797,124.205z"/><path style="fill:#EDEDED;" d="M309.104,156.72c0,4.844-3.942,8.719-8.717,8.719c-4.842,0-8.717-3.875-8.717-8.719     c0-4.773,3.875-8.715,8.717-8.715C305.162,148.005,309.104,151.947,309.104,156.72z"/><path style="fill:#EDEDED;" d="M340.565,156.72c0,4.844-3.942,8.719-8.717,8.719c-4.842,0-8.717-3.875-8.717-8.719     c0-4.773,3.875-8.715,8.717-8.715C336.623,148.005,340.565,151.947,340.565,156.72z"/><path style="fill:#EDEDED;" d="M372.026,156.72c0,4.844-3.942,8.719-8.717,8.719c-4.842,0-8.717-3.875-8.717-8.719     c0-4.773,3.875-8.715,8.717-8.715C368.084,148.005,372.026,151.947,372.026,156.72z"/><path style="fill:#F9BB40;" d="M387.62,301.849v1.513c0,10.516-8.549,18.99-19.066,18.99h-7.566     c10.517,0,19.066,8.549,19.066,19.066v1.513c0,10.517-8.55,19.066-19.066,19.066h-11.349c10.517,0,19.066,8.549,19.066,19.066     v1.513c0,10.517-8.549,18.99-19.066,18.99h-14.602c10.365,0.227,18.612,8.7,18.612,19.066v1.513     c0,10.517-8.474,19.066-18.99,19.066H229.265c-8.095,0-15.888-1.891-23-5.674c-14.602-7.566-32.609-19.671-32.609-19.671v-81.938     l30.415-18.99l28.743-59.337c2.724-5.069,3.783-10.894,3.102-16.72l-3.783-31.671c-0.227-2.875,1.21-5.523,3.783-6.507     c5.825-2.269,22.228-4.539,33.653,2.951c9.155,6.205,13.77,14.648,16.04,24.786c2.194,9.835,2.27,19.747,0.832,29.734     l-3.912,24.608h86.024C379.071,282.783,387.62,291.332,387.62,301.849z"/><path style="fill:#386E93;" d="M209.42,308.29v121.314c0,7.176-5.812,12.988-12.988,12.988h-59.084     c-7.16,0-12.988-5.812-12.988-12.988V308.29c0-7.176,5.828-12.988,12.988-12.988h59.084     C203.607,295.302,209.42,301.115,209.42,308.29z"/><path style="fill:#EDEDED;" d="M192.419,411.76c0,7.671-6.222,13.832-13.832,13.832c-7.671,0-13.833-6.161-13.833-13.832     s6.161-13.832,13.833-13.832C186.198,397.928,192.419,404.089,192.419,411.76z"/><path style="fill:#EDEDED;" d="M296.322,78.901v67.258c0,5.222-4.271,9.493-9.493,9.493h-59.853l-22.784,19.081     c-1.519,1.282-3.893,0.19-3.893-1.803v-17.278h-6.028c-5.221,0-9.493-4.271-9.493-9.493V78.901c0-5.222,4.273-9.493,9.493-9.493     h92.558C292.05,69.408,296.322,73.679,296.322,78.901z"/><path style="fill:#F9BB40;" d="M257.205,114.087c-0.777,0.775-1.148,1.89-0.946,3.006l2.163,12.669     c0.473,2.771-2.432,4.865-4.898,3.581l-11.386-6.013c-1.014-0.508-2.162-0.508-3.175,0l-11.385,6.013     c-2.467,1.283-5.372-0.81-4.899-3.581l2.163-12.669c0.203-1.115-0.169-2.23-0.946-3.006l-9.223-9.022     c-2.027-1.925-0.912-5.336,1.858-5.742l12.737-1.824c1.114-0.168,2.06-0.879,2.534-1.857l5.709-11.555     c1.25-2.534,4.831-2.534,6.08,0l5.71,11.555c0.473,0.978,1.419,1.689,2.534,1.857l12.736,1.824     c2.771,0.406,3.886,3.817,1.859,5.742L257.205,114.087z"/><path style="fill:#332E8E;" d="M331.848,169.188c6.873,0,12.466-5.593,12.466-12.468c0-6.873-5.593-12.466-12.466-12.466     c-6.873,0-12.466,5.593-12.466,12.466C319.382,163.595,324.976,169.188,331.848,169.188z M331.848,151.754     c2.693,0,4.966,2.273,4.966,4.966c0,2.739-2.227,4.968-4.966,4.968c-2.786,0-4.966-2.183-4.966-4.968     C326.882,153.981,329.109,151.754,331.848,151.754z"/><path style="fill:#332E8E;" d="M363.308,169.188c6.875,0,12.468-5.593,12.468-12.468c0-6.873-5.593-12.466-12.468-12.466     c-6.873,0-12.466,5.593-12.466,12.466C350.842,163.595,356.436,169.188,363.308,169.188z M363.308,151.754     c2.693,0,4.968,2.273,4.968,4.966c0,2.739-2.229,4.968-4.968,4.968c-2.786,0-4.966-2.183-4.966-4.968     C358.342,153.981,360.569,151.754,363.308,151.754z"/><path style="fill:#332E8E;" d="M368.555,279.032h-81.633l3.23-20.322c1.597-11.091,1.309-21.26-0.881-31.091     c-2.693-12.017-8.447-20.869-17.644-27.102c-12.827-8.411-30.51-5.859-37.048-3.318c-4.063,1.555-6.545,5.696-6.167,10.457     l3.782,31.66c0.598,5.117-0.33,10.134-2.751,14.651l-20.791,42.922c-3.057-3.274-7.397-5.336-12.219-5.336h-59.084     c-9.229,0-16.738,7.51-16.738,16.738v121.313c0,9.229,7.51,16.738,16.738,16.738h59.084c4.893,0,9.288-2.124,12.352-5.483     c6.431,2.711,13.297,4.104,20.482,4.104h105.393c21.204,0,29.366-25.932,16.858-39.722c20.3-1.655,27.391-26.76,14.497-40.049     c18.969-4.285,23.42-28.505,10.471-40.505C400.22,315.889,394.164,279.032,368.555,279.032z M205.669,429.604     c0,5.095-4.143,9.238-9.238,9.238h-59.084c-5.095,0-9.238-4.143-9.238-9.238V308.29c0-5.095,4.143-9.238,9.238-9.238h59.084     c5.095,0,9.238,4.143,9.238,9.238V429.604z M368.555,318.603h-7.566c-2.07,0-3.75,1.68-3.75,3.75s1.68,3.75,3.75,3.75     c20.426,0,20.453,32.146,0,32.146h-11.35c-2.07,0-3.75,1.68-3.75,3.75s1.68,3.75,3.75,3.75c20.469,0,20.412,32.068,0,32.068     h-14.602c-2.056,0-3.728,1.653-3.75,3.708s1.614,3.745,3.667,3.792c20.22,0.442,19.766,32.146-0.295,32.146H229.265     c-5.868,0-11.482-1.074-16.774-3.182c0.434-1.486,0.678-3.053,0.678-4.677V308.29c0-1.011-0.105-1.996-0.278-2.958l23.227-47.955     c3.081-5.735,4.299-12.28,3.523-18.94l-3.77-31.521c-0.1-1.287,0.442-2.351,1.406-2.72c4.402-1.714,19.751-4.285,30.188,2.563     c7.598,5.146,12.2,12.295,14.485,22.495c1.99,8.926,2.244,18.21,0.786,28.333l-3.911,24.607     c-0.173,1.084,0.139,2.188,0.852,3.022s1.755,1.316,2.852,1.316h86.025C389.017,286.532,388.967,318.603,368.555,318.603z"/><path style="fill:#332E8E;" d="M178.587,394.179c-9.695,0-17.583,7.886-17.583,17.581s7.888,17.583,17.583,17.583     s17.583-7.888,17.583-17.583S188.281,394.179,178.587,394.179z M178.587,421.842c-5.559,0-10.083-4.524-10.083-10.083     s4.524-10.081,10.083-10.081s10.083,4.521,10.083,10.081S184.146,421.842,178.587,421.842z"/><path style="fill:#332E8E;" d="M286.829,65.658H194.27c-7.302,0-13.242,5.94-13.242,13.242v67.258     c0,7.302,5.94,13.245,13.242,13.245h2.278v13.528c0,2.395,1.357,4.512,3.542,5.527c0.842,0.391,1.733,0.583,2.612,0.583     c1.401,0,2.776-0.488,3.896-1.433l21.738-18.206h46.709v28.872c0,7.048,5.732,12.781,12.781,12.781h55.571l20.615,17.263     c1.106,0.935,2.461,1.418,3.84,1.418c0.859,0,1.729-0.188,2.554-0.571c2.146-0.996,3.477-3.074,3.477-5.425v-12.686h1.985     c7.048,0,12.781-5.732,12.781-12.781v-63.977c0-7.048-5.732-12.781-12.781-12.781h-75.798V78.9     C300.071,71.598,294.131,65.658,286.829,65.658z M295.483,156.102c1.284-1.119,2.338-2.468,3.116-4.001     c0.557-0.216,1.157-0.347,1.79-0.347c2.693,0,4.966,2.273,4.966,4.966c0,2.739-2.227,4.968-4.966,4.968     c-2.786,0-4.968-2.183-4.968-4.968C295.42,156.508,295.457,156.307,295.483,156.102z M226.975,151.903     c-0.881,0-1.733,0.31-2.407,0.874l-20.52,17.185v-14.309c0-2.07-1.68-3.75-3.75-3.75h-6.028c-3.167,0-5.742-2.578-5.742-5.745     V78.9c0-3.167,2.576-5.742,5.742-5.742h92.559c3.167,0,5.742,2.576,5.742,5.742v67.258c0,0.348-0.043,0.684-0.103,1.015     c-1.388,1.153-2.524,2.579-3.308,4.224c-0.714,0.319-1.5,0.506-2.331,0.506H226.975z M375.869,119.018     c2.913,0,5.281,2.368,5.281,5.281v63.977c0,2.913-2.368,5.281-5.281,5.281h-5.735c-2.07,0-3.75,1.68-3.75,3.75v13.218     l-19.216-16.094c-0.674-0.564-1.526-0.874-2.407-0.874h-56.934c-2.913,0-5.281-2.368-5.281-5.281v-28.872h4.282     c0.464,0,0.904-0.09,1.356-0.137c1.179,5.658,6.201,9.922,12.203,9.922c6.873,0,12.466-5.593,12.466-12.468     c0-6.873-5.593-12.466-12.466-12.466c-0.109,0-0.209,0.029-0.317,0.032v-25.269H375.869z"/><path style="fill:#332E8E;" d="M265.103,95.612l-12.522-1.794l-5.627-11.389c-1.216-2.463-3.669-3.994-6.404-3.994     s-5.188,1.531-6.401,3.989l-5.63,11.394l-12.532,1.794c-2.725,0.4-4.934,2.278-5.767,4.902c-0.828,2.605-0.11,5.391,1.829,7.231     l9.07,8.87l-2.136,12.515c-0.459,2.69,0.623,5.361,2.827,6.968c2.207,1.614,5.078,1.831,7.517,0.562l11.223-5.925l11.245,5.938     c1.04,0.542,2.168,0.808,3.289,0.808c1.48,0,2.952-0.464,4.207-1.382c2.205-1.606,3.286-4.277,2.827-6.965l-2.134-12.517     l9.028-8.831c1.978-1.88,2.695-4.666,1.868-7.271C270.047,97.89,267.837,96.012,265.103,95.612z M254.583,111.405     c-0.01,0.01-0.02,0.02-0.029,0.029c-1.66,1.66-2.402,4.026-1.99,6.289l2.039,11.948l-10.786-5.693     c-1.028-0.515-2.134-0.776-3.247-0.776c-1.133,0-2.275,0.269-3.357,0.813l-10.713,5.657l2.031-11.909     c0.42-2.3-0.322-4.668-2.014-6.357l-8.674-8.481l11.982-1.716c2.329-0.352,4.329-1.821,5.337-3.904l5.388-10.903l5.374,10.874     c1.023,2.112,3.022,3.582,5.378,3.936l11.953,1.714L254.583,111.405z"/></g></g></g><g id="Layer_1"/></svg>